<svg width="228" height="228" viewBox="0 0 228 228" fill="none" xmlns="http://www.w3.org/2000/svg">
<g clip-path="url(#clip0_806_2181)">
<path d="M67.7203 110.807C68.6927 110.807 69.4811 110.024 69.4811 109.057C69.4811 108.09 68.6927 107.307 67.7203 107.307C66.7478 107.307 65.9595 108.09 65.9595 109.057C65.9595 110.024 66.7478 110.807 67.7203 110.807Z" fill="white"/>
<path d="M94.3702 110.807C95.3426 110.807 96.131 110.024 96.131 109.057C96.131 108.09 95.3426 107.307 94.3702 107.307C93.3977 107.307 92.6094 108.09 92.6094 109.057C92.6094 110.024 93.3977 110.807 94.3702 110.807Z" fill="white"/>
<path d="M121.02 110.807C121.993 110.807 122.781 110.024 122.781 109.057C122.781 108.09 121.993 107.307 121.02 107.307C120.048 107.307 119.259 108.09 119.259 109.057C119.259 110.024 120.048 110.807 121.02 110.807Z" fill="white"/>
<path d="M74.5252 90.0412C94.1319 109.105 120.877 153.334 124.351 160.24C126.73 164.923 102.079 177.932 100.985 174.478C99.557 170.079 74.2872 123.627 68.291 97.4679C65.626 86.0677 70.5753 86.2096 74.5252 90.0412Z" fill="#F7A9A0"/>
<path d="M99.7002 171.309C100.604 173.627 103.793 183.608 105.887 184.791C107.981 185.973 118.831 185.5 124.304 185.406C129.777 185.311 130.823 183.75 130.681 181.905C130.538 180.06 119.069 179.919 119.069 179.919C119.069 179.919 134.488 183.939 138.343 184.602C142.197 185.264 151.144 187.298 152.381 184.081C152.952 182.615 150.478 181.243 150.478 181.243C150.478 181.243 154.237 182.236 154.761 180.392C155.379 178.263 152.381 177.175 152.381 177.175C152.381 177.175 154.713 177.601 154.761 175.898C154.808 172.066 140.199 170.505 140.199 170.505C140.199 170.505 151.477 175.661 151.763 172.539C152.191 168.235 129.205 163.977 126.778 162.132C125.208 160.855 123.875 159.294 122.876 157.544L99.7002 171.309Z" fill="#F7A9A0"/>
<path d="M130.633 182.803C130.681 182.283 130.49 181.763 130.062 181.384C129.681 181.053 129.205 180.769 128.729 180.533C127.73 180.107 126.635 179.823 125.589 179.587C123.399 179.114 121.21 178.735 118.974 178.215C121.258 178.12 123.542 178.357 125.731 178.83C126.873 179.066 127.968 179.445 128.967 180.012C129.491 180.296 129.967 180.675 130.347 181.148C130.728 181.621 130.823 182.236 130.633 182.803Z" fill="#222222"/>
<path d="M150.43 181.196C148.86 180.865 147.289 180.439 145.719 180.013C144.148 179.587 142.625 179.162 141.055 178.736L136.391 177.411C134.868 176.986 133.298 176.513 131.728 176.087C133.346 176.229 134.964 176.465 136.534 176.844C138.104 177.175 139.675 177.601 141.245 178.026C142.816 178.452 144.339 178.972 145.861 179.493C147.384 180.013 148.955 180.533 150.43 181.196Z" fill="#222222"/>
<path d="M135.392 172.16C136.867 172.207 138.342 172.397 139.817 172.68C141.293 172.964 142.72 173.295 144.148 173.674C145.576 174.1 147.003 174.573 148.383 175.14C149.764 175.708 151.096 176.37 152.381 177.08C150.953 176.607 149.573 176.134 148.146 175.661C146.718 175.188 145.338 174.762 143.91 174.383C142.482 174.005 141.055 173.579 139.627 173.201C138.199 172.822 136.819 172.539 135.392 172.16Z" fill="#222222"/>
<path d="M137.581 168.471C142.388 168.802 147.051 170.268 151.192 172.775C148.907 172.018 146.671 171.214 144.434 170.505C142.197 169.795 139.865 169.18 137.581 168.471Z" fill="#222222"/>
<path d="M123.828 156.881L94.9412 174.099C94.9412 174.099 71.1467 115.254 68.0534 99.8326C64.9601 84.4116 70.5756 83.8912 79.57 93.352C90.1347 104.516 123.828 156.881 123.828 156.881Z" fill="#D9772E"/>
<path d="M94.6081 166.862C96.7972 165.821 98.8435 164.497 100.89 163.267C102.936 162.037 104.935 160.807 106.934 159.53C110.979 157.023 115.119 154.563 119.021 151.772C119.069 151.725 119.069 151.678 119.021 151.63C118.974 151.583 118.974 151.583 118.926 151.583C114.595 153.712 110.503 156.313 106.363 158.82C104.316 160.098 102.27 161.375 100.224 162.699C98.2248 163.929 96.3213 165.254 94.4653 166.673C94.4177 166.815 94.5129 166.909 94.6081 166.862Z" fill="#222222"/>
<path d="M94.7509 161.422C94.0847 161.659 93.6564 162.274 93.6564 162.983C93.6564 163.456 93.4184 163.882 93.0377 164.119C92.8474 164.261 92.5618 164.355 92.3239 164.355C92.0384 164.402 91.7528 164.45 91.4673 164.497C92.0384 164.592 92.6094 164.828 93.2281 164.544C93.8467 164.26 94.275 163.646 94.275 162.936C94.275 162.463 94.513 162.085 94.9413 161.848C95.1792 161.706 95.4172 161.659 95.6551 161.611C95.9407 161.564 96.2262 161.517 96.5117 161.47C95.9407 161.422 95.4172 161.186 94.7509 161.422ZM112.502 139.568C112.169 139.899 111.931 140.325 111.931 140.798C111.931 141.271 111.693 141.697 111.312 141.933C111.122 142.075 110.836 142.122 110.598 142.17C110.313 142.217 110.027 142.264 109.742 142.312C110.313 142.406 110.884 142.643 111.502 142.359C112.121 142.075 112.549 141.46 112.549 140.751C112.549 140.467 112.644 140.23 112.787 140.041L112.502 139.568ZM92.3715 137.534C91.7052 137.77 91.2769 138.433 91.2769 139.142C91.2769 139.615 91.039 140.041 90.6583 140.278C90.4679 140.419 90.1824 140.467 89.9444 140.514C89.6589 140.561 89.3734 140.609 89.0878 140.656C89.6589 140.751 90.23 140.987 90.8486 140.703C91.4673 140.419 91.8956 139.804 91.8956 139.095C91.8956 138.622 92.1335 138.243 92.5618 138.007C92.7998 137.865 93.0377 137.818 93.2757 137.77C93.5612 137.723 93.8467 137.676 94.1323 137.629C93.5612 137.534 93.0377 137.297 92.3715 137.534ZM92.2287 117.193C91.6101 116.91 90.8486 117.099 90.3727 117.572C90.0396 117.903 89.5637 117.997 89.1354 117.903C88.8975 117.856 88.6595 117.714 88.4692 117.524C88.2312 117.335 87.9933 117.193 87.7553 117.051C88.0885 117.524 88.3264 118.045 88.9451 118.376C89.5637 118.66 90.3252 118.565 90.8486 118.045C91.1818 117.714 91.6576 117.572 92.0859 117.666C92.3239 117.714 92.5618 117.856 92.7522 117.997C92.9901 118.139 93.2281 118.329 93.466 118.471C93.1329 117.997 92.895 117.477 92.2287 117.193ZM81.3784 106.645C81.0929 106.03 80.4742 105.604 79.7604 105.604C79.2845 105.604 78.8562 105.367 78.6182 104.942C78.4755 104.705 78.4279 104.469 78.4279 104.232C78.3803 103.948 78.3327 103.664 78.2375 103.381C78.1423 103.948 77.9044 104.469 78.1423 105.131C78.3803 105.793 78.9989 106.219 79.7128 106.219C80.4266 106.219 81.0453 106.787 81.0929 107.543C81.1405 107.827 81.188 108.111 81.2356 108.395C81.426 107.874 81.6639 107.26 81.3784 106.645ZM119.402 158.206C119.117 157.591 118.498 157.165 117.832 157.165C117.356 157.165 116.927 156.928 116.69 156.503C116.547 156.266 116.499 156.03 116.499 155.793C116.452 155.509 116.404 155.225 116.356 154.942C116.261 155.509 116.023 156.03 116.261 156.692C116.499 157.354 117.118 157.78 117.832 157.78C118.308 157.78 118.736 158.016 118.974 158.395C119.117 158.584 119.212 158.821 119.212 159.104C119.259 159.246 119.259 159.436 119.307 159.577L119.497 159.483C119.545 159.104 119.545 158.631 119.402 158.206ZM104.412 129.208C104.126 128.594 103.507 128.168 102.841 128.168C102.365 128.168 101.937 127.931 101.699 127.506C101.556 127.269 101.509 127.032 101.509 126.796C101.461 126.512 101.413 126.228 101.366 125.945C101.271 126.512 101.033 127.032 101.271 127.695C101.509 128.357 102.127 128.783 102.841 128.783C103.555 128.783 104.174 129.35 104.221 130.107C104.269 130.391 104.316 130.675 104.364 130.959C104.459 130.391 104.697 129.823 104.412 129.208ZM79.9507 128.594C79.6652 127.979 79.0465 127.553 78.3803 127.553C77.9044 127.553 77.4761 127.316 77.2381 126.891C77.0954 126.654 77.0478 126.418 77.0478 126.181C77.0002 125.897 76.9526 125.613 76.905 125.33C76.7623 125.755 76.7147 126.181 76.7147 126.654C76.7147 126.796 76.7623 126.938 76.8098 127.127C76.8574 127.269 76.9526 127.411 77.0478 127.553C77.3809 127.979 77.8568 128.215 78.3803 128.262C79.0941 128.262 79.7128 128.83 79.7604 129.587C79.808 129.871 79.8556 130.155 79.9031 130.438C79.9983 129.823 80.2363 129.256 79.9507 128.594ZM103.888 152.198C103.603 151.583 102.984 151.157 102.318 151.157C101.842 151.157 101.461 150.921 101.223 150.495C101.08 150.259 101.033 150.022 100.985 149.786C100.938 149.502 100.89 149.218 100.842 148.934C100.747 149.502 100.509 150.022 100.747 150.684C100.985 151.347 101.604 151.772 102.318 151.772C102.793 151.772 103.222 152.009 103.46 152.387C103.603 152.576 103.698 152.86 103.698 153.097C103.745 153.381 103.793 153.664 103.888 153.948C103.888 153.428 104.126 152.86 103.888 152.198ZM68.4342 95.2444C68.101 95.1025 67.7203 95.0552 67.3872 95.1498C67.3872 95.339 67.4348 95.5755 67.4348 95.7648C67.6727 95.6701 67.9583 95.6701 68.2438 95.7175C68.4818 95.7648 68.7197 95.9067 68.9101 96.0959C69.148 96.2378 69.3384 96.427 69.6239 96.5689C69.2908 96.0959 69.0528 95.5755 68.4342 95.2444Z" fill="white"/>
<path opacity="0.1" d="M107.219 166.815L94.941 174.148C94.941 174.148 71.1464 115.302 68.0531 99.8807C66.5778 92.4068 67.1013 88.4333 69.1001 87.3926L107.219 166.815Z" fill="black"/>
<path d="M82.7584 181.101H6.56824C5.47369 179.776 20.1311 110.855 51.2544 89.1422C61.1054 82.2358 73.7641 85.1214 75.858 93.5887C84.8523 129.776 83.7578 179.965 82.7584 181.101Z" fill="#D9772E"/>
<path d="M55.0141 103.475C54.3478 103.712 53.9195 104.327 53.9195 105.036C53.9195 105.509 53.6816 105.935 53.3008 106.171C53.1105 106.313 52.825 106.408 52.587 106.408C52.3015 106.455 52.0159 106.503 51.7304 106.597C52.3015 106.692 52.8725 106.928 53.4912 106.644C54.1575 106.361 54.5382 105.746 54.5382 105.083C54.5382 104.61 54.7761 104.232 55.2044 103.995C55.3948 103.854 55.6803 103.806 55.9183 103.759C56.2038 103.712 56.4893 103.664 56.7749 103.617C56.2514 103.475 55.7279 103.239 55.0141 103.475ZM49.5889 140.183C48.9227 140.419 48.4944 141.034 48.4944 141.744C48.4944 142.217 48.2564 142.643 47.8757 142.879C47.6853 143.021 47.3998 143.068 47.1619 143.116C46.8763 143.163 46.5908 143.21 46.3052 143.258C46.8763 143.352 47.4474 143.589 48.066 143.305C48.6847 143.021 49.113 142.406 49.113 141.696C49.113 141.223 49.351 140.845 49.7793 140.609C50.0172 140.467 50.2551 140.419 50.4931 140.419C50.7786 140.372 51.0642 140.325 51.3497 140.277C50.8262 140.183 50.2551 139.946 49.5889 140.183ZM82.8061 174.856C82.6157 174.998 82.3302 175.093 82.0923 175.093C81.8067 175.14 81.5212 175.187 81.2357 175.282C81.8067 175.377 82.3778 175.613 82.9965 175.329C83.0916 175.282 83.1868 175.235 83.2344 175.187C83.2344 174.856 83.282 174.525 83.282 174.194C83.1868 174.478 83.044 174.667 82.8061 174.856ZM36.3591 168.045C35.6929 168.281 35.2646 168.896 35.2646 169.606C35.2646 170.079 35.0266 170.504 34.6459 170.741C34.4556 170.883 34.17 170.977 33.9321 170.977C33.6465 171.025 33.361 171.072 33.0755 171.167C33.6465 171.261 34.17 171.498 34.8363 171.214C35.4549 170.93 35.8832 170.315 35.8832 169.606C35.8832 169.133 36.1212 168.754 36.5495 168.47C36.7874 168.328 37.0254 168.281 37.2633 168.281C37.5489 168.234 37.8344 168.187 38.1199 168.139C37.5964 168.045 37.0254 167.808 36.3591 168.045ZM70.3377 113.787C69.6715 114.024 69.2432 114.639 69.2432 115.348C69.2432 115.821 69.0053 116.247 68.6245 116.484C68.4342 116.626 68.1962 116.72 67.9107 116.72C67.6252 116.767 67.3396 116.815 67.0541 116.862C67.6252 116.957 68.1962 117.193 68.8149 116.909C69.4336 116.626 69.8619 116.011 69.8619 115.348C69.8619 114.875 70.0998 114.45 70.5281 114.213C70.7661 114.071 71.004 114.024 71.2419 114.024C71.5275 113.977 71.813 113.929 72.0985 113.882C71.5751 113.787 71.004 113.598 70.3377 113.787ZM11.708 169.511C11.0417 169.748 10.6134 170.363 10.6134 171.072C10.6134 171.545 10.3755 171.971 9.99476 172.207C9.8044 172.349 9.51887 172.444 9.28092 172.444C8.99539 172.491 8.70985 172.538 8.42432 172.586C8.99539 172.68 9.51887 172.917 10.1851 172.633C10.8038 172.349 11.2321 171.734 11.2321 171.025C11.2321 170.552 11.47 170.173 11.8983 169.889C12.1363 169.748 12.3742 169.7 12.6122 169.7C12.8977 169.653 13.1832 169.606 13.4688 169.511C12.8977 169.511 12.3742 169.275 11.708 169.511ZM23.4149 140.183C22.7486 140.419 22.3203 141.034 22.3203 141.744C22.3203 142.217 22.0824 142.643 21.7017 142.879C21.5113 143.021 21.2258 143.116 20.9878 143.116C20.7023 143.163 20.4168 143.21 20.1312 143.258C20.7023 143.352 21.2258 143.589 21.892 143.305C22.5107 143.021 22.939 142.406 22.939 141.696C22.939 141.223 23.1769 140.845 23.6052 140.561C23.8432 140.419 24.0811 140.372 24.3191 140.372C24.6046 140.325 24.8901 140.277 25.1757 140.183C24.6522 140.183 24.0811 139.946 23.4149 140.183ZM80.2363 150.022C79.57 150.258 79.1417 150.873 79.1417 151.583C79.1417 152.056 78.9038 152.482 78.5231 152.718C78.3327 152.86 78.0472 152.955 77.8092 152.955C77.5237 153.002 77.2382 153.049 76.9526 153.097C77.4761 153.191 78.0472 153.428 78.7134 153.144C79.3321 152.86 79.7604 152.245 79.7604 151.536C79.7604 151.063 79.9983 150.684 80.4266 150.4C80.6646 150.258 80.9025 150.211 81.1405 150.211C81.426 150.164 81.7115 150.117 81.9971 150.022C81.426 150.022 80.9025 149.833 80.2363 150.022ZM39.3572 130.769C38.7386 130.486 37.9772 130.675 37.5013 131.148C37.1681 131.479 36.6922 131.574 36.2639 131.479C36.026 131.432 35.7881 131.29 35.5977 131.1C35.3598 130.959 35.1218 130.769 34.8839 130.627C35.217 131.1 35.4549 131.621 36.0736 131.952C36.6922 132.236 37.4537 132.094 37.9772 131.621C38.3103 131.29 38.7862 131.148 39.2145 131.242C39.4524 131.29 39.6904 131.384 39.8807 131.574C40.1187 131.763 40.3566 131.905 40.5946 132.047C40.2138 131.621 39.9759 131.1 39.3572 130.769ZM70.0998 166.247C69.4336 166.011 68.7197 166.152 68.2438 166.626C67.9107 166.957 67.4348 167.051 67.0065 166.957C66.7686 166.909 66.5306 166.767 66.3403 166.578C66.1023 166.436 65.8644 166.247 65.6264 166.105C65.9596 166.578 66.1975 167.099 66.8162 167.43C67.4348 167.714 68.1962 167.572 68.7197 167.099C69.0528 166.767 69.5287 166.626 69.957 166.72C70.195 166.767 70.4329 166.862 70.6233 167.051C70.8612 167.193 71.0992 167.382 71.3371 167.524C71.004 167.099 70.766 166.578 70.0998 166.247ZM69.148 136.067C68.4818 135.831 67.7679 135.973 67.292 136.446C66.9589 136.777 66.483 136.872 66.0547 136.777C65.8168 136.73 65.5788 136.588 65.3885 136.398C65.1505 136.257 64.9126 136.067 64.6746 135.925C65.0078 136.398 65.2457 136.919 65.8644 137.25C66.483 137.534 67.2445 137.439 67.7679 136.919C68.1011 136.588 68.577 136.446 69.0053 136.54C69.2432 136.588 69.4811 136.73 69.6715 136.872C69.9094 137.013 70.1474 137.203 70.3853 137.345C70.0522 136.919 69.8143 136.398 69.148 136.067ZM23.748 178.026C23.1294 177.742 22.3679 177.931 21.892 178.404C21.5589 178.735 21.083 178.83 20.6547 178.735C20.4168 178.688 20.1788 178.546 19.9885 178.357C19.7505 178.215 19.5126 178.026 19.2746 177.884C19.6078 178.357 19.8457 178.877 20.4644 179.208C21.083 179.492 21.8444 179.35 22.3203 178.877C22.6535 178.546 23.1294 178.404 23.5577 178.499C23.7956 178.546 24.0335 178.641 24.2239 178.83C24.4618 178.972 24.6998 179.161 24.9377 179.303C24.6522 178.877 24.4143 178.31 23.748 178.026ZM26.7461 120.031C26.6509 120.173 26.6034 120.315 26.5082 120.457C26.7461 120.504 26.9365 120.599 27.0792 120.788C27.3172 120.977 27.5551 121.119 27.7931 121.261C27.5551 120.788 27.222 120.363 26.7461 120.031ZM50.9214 160.713C50.3027 160.429 49.5413 160.618 49.0654 161.091C48.7323 161.422 48.2564 161.517 47.8281 161.422C47.5902 161.375 47.3522 161.233 47.1619 161.044C46.9239 160.854 46.686 160.713 46.448 160.571C46.7811 161.044 47.0191 161.564 47.6377 161.895C48.2564 162.179 49.0178 162.037 49.4937 161.564C50.0172 161.044 50.8738 161.044 51.3973 161.517C51.6352 161.706 51.8732 161.848 52.1111 161.99C51.778 161.564 51.5401 160.996 50.9214 160.713ZM52.9201 89.7097C52.7298 89.2367 52.3491 88.9056 51.8256 88.7637C51.6352 88.9056 51.3973 89.0475 51.2069 89.1894L51.0166 89.3313C51.1117 89.3313 51.2069 89.3786 51.3021 89.3786C51.778 89.3786 52.2063 89.6151 52.4442 89.9936C52.587 90.1828 52.6822 90.4666 52.6822 90.7031C52.7298 90.9869 52.7774 91.2708 52.825 91.5546C52.9677 90.8923 53.2057 90.3247 52.9201 89.7097ZM36.3591 152.198C36.0736 151.583 35.4549 151.157 34.7887 151.157C34.3128 151.157 33.9321 150.921 33.6941 150.495C33.5514 150.258 33.5038 150.022 33.5038 149.785C33.4562 149.502 33.4086 149.218 33.361 148.934C33.2658 149.502 33.0279 150.022 33.2658 150.684C33.5038 151.346 34.1224 151.772 34.8363 151.772C35.3122 151.772 35.7405 152.009 35.9784 152.387C36.1212 152.576 36.2164 152.86 36.2164 153.097C36.2639 153.38 36.3115 153.664 36.3591 153.948C36.4067 153.428 36.6447 152.86 36.3591 152.198ZM40.4994 115.301C40.2138 114.686 39.5952 114.26 38.8813 114.26C38.4055 114.26 37.9772 114.024 37.7868 113.598C37.644 113.362 37.5964 113.125 37.5964 112.889C37.5489 112.605 37.5013 112.321 37.4537 112.037C37.3585 112.605 37.1206 113.125 37.3585 113.787C37.5964 114.45 38.2151 114.875 38.9289 114.875C39.4048 114.875 39.8331 115.112 40.0711 115.49C40.2138 115.679 40.309 115.916 40.309 116.2C40.3566 116.484 40.4042 116.767 40.4518 117.051C40.547 116.484 40.7849 115.963 40.4994 115.301ZM78.1424 104.279C78.0948 104.563 78.1424 104.847 78.2375 105.131C78.2851 105.225 78.3327 105.32 78.3803 105.415C78.2851 105.083 78.2375 104.658 78.1424 104.279ZM56.6797 124.525C56.3941 123.91 55.7755 123.485 55.0616 123.485C54.5858 123.485 54.1575 123.248 53.9195 122.822C53.7767 122.586 53.7292 122.349 53.7292 122.113C53.6816 121.829 53.634 121.545 53.5388 121.261C53.4436 121.829 53.2057 122.349 53.4436 123.012C53.6816 123.674 54.3002 124.1 55.0141 124.1C55.4899 124.1 55.9183 124.336 56.1562 124.714C56.299 124.904 56.3941 125.188 56.3941 125.424C56.4417 125.708 56.4893 125.992 56.5845 126.275C56.7273 125.755 56.9652 125.188 56.6797 124.525ZM79.9507 128.593C79.6652 127.978 79.0466 127.553 78.3803 127.553C77.9044 127.553 77.4761 127.316 77.2382 126.89C77.0954 126.654 77.0478 126.417 77.0478 126.181C77.0002 125.897 76.9526 125.613 76.905 125.329C76.8099 125.897 76.5719 126.417 76.8099 127.08C77.0478 127.742 77.6665 128.168 78.3803 128.168C79.0941 128.168 79.7128 128.735 79.7604 129.492C79.808 129.776 79.8556 130.06 79.9032 130.344C79.9983 129.823 80.2363 129.256 79.9507 128.593ZM53.3484 180.344C53.0629 179.729 52.4442 179.303 51.778 179.303C51.3021 179.303 50.9214 179.066 50.6834 178.641C50.5407 178.404 50.4931 178.168 50.4931 177.931C50.4455 177.647 50.3979 177.363 50.3503 177.08C50.2551 177.647 50.0172 178.168 50.2551 178.83C50.4931 179.492 51.1118 179.918 51.8256 179.918C52.3015 179.918 52.7298 180.154 52.9677 180.533C53.0629 180.675 53.1581 180.864 53.1581 181.053H53.5388C53.4912 180.864 53.4436 180.58 53.3484 180.344ZM22.5583 162.794C22.2727 162.179 21.6541 161.753 20.9878 161.753C20.5595 161.753 20.1312 161.517 19.8933 161.091C19.7505 160.854 19.7029 160.618 19.7029 160.381C19.6553 160.098 19.6078 159.814 19.5602 159.53C19.465 160.098 19.227 160.618 19.465 161.28C19.7029 161.942 20.3216 162.368 21.0354 162.368C21.5113 162.368 21.9396 162.605 22.1776 162.983C22.3203 163.172 22.3679 163.456 22.4155 163.693C22.4631 163.977 22.5107 164.26 22.5583 164.544C22.6059 163.977 22.7962 163.456 22.5583 162.794ZM62.6759 152.198C62.3904 151.583 61.7717 151.157 61.1055 151.157C60.6296 151.157 60.2489 150.921 60.0109 150.495C59.8681 150.258 59.8206 150.022 59.8206 149.785C59.773 149.502 59.7254 149.218 59.6778 148.934C59.5826 149.502 59.3447 150.022 59.5826 150.684C59.8206 151.346 60.4392 151.772 61.1531 151.772C61.6289 151.772 62.0572 152.009 62.2952 152.387C62.438 152.576 62.4855 152.86 62.5331 153.097C62.5807 153.38 62.6283 153.664 62.6759 153.948C62.7235 153.428 62.9139 152.86 62.6759 152.198ZM68.4342 95.2443C67.8155 94.9605 67.0541 95.0551 66.5306 95.5754C66.0071 96.0957 65.1505 96.143 64.6271 95.6227C64.3891 95.4808 64.1512 95.2916 63.9132 95.1497C64.2463 95.6227 64.4843 96.143 65.1505 96.4269C65.7692 96.7107 66.5306 96.5215 67.0065 96.0484C67.3396 95.7173 67.8155 95.6227 68.2438 95.7173C68.4818 95.7646 68.7197 95.9065 68.9101 96.0484C69.148 96.1904 69.3384 96.3796 69.6239 96.5215C69.2908 96.0957 69.0528 95.5754 68.4342 95.2443Z" fill="white"/>
<path d="M70.8132 101.11C66.6729 101.11 61.3429 93.6363 59.7725 88.1963C59.6773 87.8179 64.1031 74.904 64.7218 72.255C64.8645 71.6874 80.5214 80.1074 80.5214 80.1074C80.5214 80.1074 77.5708 85.2635 76.5239 89.8993C76.4763 90.325 74.8107 101.11 70.8132 101.11Z" fill="#F7A9A0"/>
<path d="M80.5214 80.1543C80.5214 80.1543 77.5709 85.3104 76.5239 89.9462C76.5239 90.0408 76.3812 90.703 76.1908 91.6964C68.3862 89.142 64.4839 83.1344 62.6279 79.019C63.5797 76.0862 64.4839 73.3426 64.7218 72.2546C64.8646 71.7343 80.5214 80.1543 80.5214 80.1543Z" fill="#222222"/>
<path d="M90.1347 51.8672C90.1347 51.8672 94.7032 55.8407 93.8942 61.5644C93.0852 67.2882 89.9443 72.4916 89.3732 72.6335C88.8022 72.7754 90.1347 51.8672 90.1347 51.8672Z" fill="#263238"/>
<path d="M66.9586 51.7724C63.1514 56.8339 60.2961 74.3836 63.0563 79.4924C67.0538 86.9191 76.5716 90.8453 83.6623 85.4054C90.5152 80.1074 93.8464 57.2124 90.4676 52.2455C85.5659 45.008 72.5741 44.2512 66.9586 51.7724Z" fill="#F7A9A0"/>
<path d="M85.6138 69.322C85.6138 69.2747 85.7089 69.4166 85.6613 69.4639C85.3282 70.6465 85.1379 72.0183 86.0896 72.6806C86.1372 72.6806 86.0896 72.7752 86.0421 72.7279C84.8047 72.2075 85.0903 70.3627 85.6138 69.322Z" fill="#263238"/>
<path d="M86.9939 68.3765C88.9451 68.7076 88.0885 72.5392 86.3277 72.2081C84.5669 71.877 85.3759 68.0927 86.9939 68.3765Z" fill="#263238"/>
<path d="M75.0967 78.1679C75.287 78.4991 75.4774 78.9721 75.8581 79.1613C76.2864 79.2559 76.7623 79.3032 77.1906 79.2559C77.1906 79.2559 77.2382 79.2559 77.2382 79.3032V79.3505C76.7623 79.729 76.096 79.8236 75.5725 79.5397C75.1442 79.2559 74.8587 78.7356 74.9539 78.2625C74.9539 78.1206 75.0491 78.1206 75.0967 78.1679Z" fill="#263238"/>
<path d="M82.5205 74.3838C82.5205 74.3838 82.3302 76.1813 82.1398 77.0328C82.1398 77.1274 79.808 76.3705 77.143 76.6071C76.7623 76.6544 76.8098 76.3232 77.2857 76.1813C78.2375 75.8975 79.3797 75.661 81.5688 76.134C81.6639 75.8975 81.7591 73.3431 81.9019 73.3431C82.5205 73.5323 83.1392 73.8634 83.7103 74.1946C84.1862 70.4103 84.0434 66.5787 84.5669 62.8417C84.5669 62.7944 84.662 62.7471 84.7096 62.7471C84.7572 62.7471 84.8048 62.7944 84.8048 62.8417C85.2331 66.8152 84.8048 71.2144 84.4241 75.0933C84.3765 75.6137 82.8061 74.573 82.5205 74.3838Z" fill="#263238"/>
<path d="M79.3797 65.6323C78.8562 65.6796 78.3327 65.6796 77.8093 65.6796C77.1906 65.6796 76.7147 65.7743 76.1912 65.4431C75.9057 65.2066 75.8105 64.8282 75.9533 64.4971C76.2864 63.7875 77.0478 63.5983 77.7617 63.551C78.4755 63.4564 79.2369 63.6929 79.8556 64.1186C80.2363 64.4497 80.2839 64.9701 79.9508 65.3485C79.7604 65.4904 79.5701 65.6323 79.3797 65.6323Z" fill="#222222"/>
<path d="M89.0876 63.7401C88.6117 63.5036 88.1834 63.2198 87.7075 62.936C87.184 62.6048 86.7557 62.4156 86.4702 61.848C86.3274 61.5169 86.4702 61.0911 86.8033 60.9019C87.4695 60.5235 88.231 60.76 88.8496 61.0911C89.5159 61.4223 90.0394 61.9899 90.2773 62.6995C90.4201 63.1725 90.1821 63.6455 89.7062 63.7874C89.5159 63.8347 89.2779 63.8347 89.0876 63.7401Z" fill="#263238"/>
<path d="M75.144 67.4774C75.5248 67.3828 75.9055 67.3355 76.2862 67.3828C76.6669 67.3828 77.0476 67.4774 77.4283 67.6193C77.809 67.7612 78.1422 67.9978 78.4753 68.2816C78.8084 68.5654 79.0463 68.9438 79.1891 69.3696L79.4746 70.1264L78.7132 69.9372C78.1897 69.7953 77.6187 69.748 77.0952 69.7007C76.5241 69.6534 75.9531 69.7953 75.4772 70.0318C75.8579 69.5115 76.4289 69.1804 77.0476 69.0857C77.6663 68.9911 78.3325 68.9911 78.9036 69.1331L78.4277 69.6534C78.1897 69.0858 77.7139 68.5654 77.1428 68.2816C76.5241 67.8559 75.8103 67.6193 75.144 67.4774Z" fill="#222222"/>
<path d="M76.9048 70.8835C77.4759 70.8362 78.0945 70.6943 78.618 70.4577C78.7608 70.4104 79.2367 70.1266 79.2367 69.9847C79.2367 69.7009 79.1415 69.3698 79.0463 69.0859C79.2367 69.3698 79.3318 69.6536 79.427 69.9847C79.3318 70.3158 79.0463 70.5524 78.7132 70.6943C78.1421 70.9308 77.5234 70.9781 76.9048 70.8835Z" fill="#263238"/>
<path d="M80.5691 76.5123C80.5691 76.5123 78.9511 78.2625 77.3806 78.3098C75.5247 78.3571 75.5722 76.7015 77.6662 76.0393C78.7607 75.7554 80.5691 76.5123 80.5691 76.5123Z" fill="#263238"/>
<path d="M77.3808 78.3099C78.0947 78.2626 78.7133 78.0261 79.2844 77.6003C78.9989 76.9854 78.2374 76.2758 76.1435 77.0327C75.8104 77.6949 76.2387 78.3572 77.3808 78.3099Z" fill="#FF99BA"/>
<path d="M63.3419 68.2344C65.3407 69.1805 68.6719 63.3149 69.6713 61.0443C70.5755 59.0575 72.2887 52.4823 72.479 52.0093C72.6694 51.5362 80.6168 59.294 86.0895 58.5372C91.5623 57.7803 95.7501 53.6649 96.1784 51.4889C96.6067 49.313 90.9436 42.8797 85.3281 41.7444C79.7126 40.6091 71.0514 46.5694 71.0514 46.5694C71.0514 46.5694 74.0971 43.873 74.0495 43.6365C74.0019 43.4 70.1472 44.2515 69.1002 46.7586C69.1002 46.7586 70.2899 43.6365 70.052 43.5419C69.8141 43.4473 66.5304 45.7652 66.8635 47.9885C66.8635 47.9885 63.1516 50.3063 62.3902 53.3338C61.6287 56.3612 61.0101 67.1465 63.3419 68.2344Z" fill="#222222"/>
<path d="M89.992 58.064C88.2788 58.537 86.5656 59.1046 84.7572 59.0573C82.8061 59.01 80.9501 58.2532 79.2369 57.3071C77.5237 56.361 76.0484 55.0838 74.7159 53.6647C73.5738 52.3875 72.622 50.9211 71.3371 49.7858C71.0516 49.502 70.5281 49.9277 70.7184 50.3061C72.3365 53.8066 75.7153 56.976 79.1417 58.6789C82.8061 60.4291 86.518 60.098 89.992 58.064Z" fill="#222222"/>
<path d="M65.6261 67.3354C65.6261 67.3354 63.6749 60.7129 60.772 61.2332C57.8691 61.7536 58.107 70.4575 60.6292 72.4915C61.8665 73.6268 63.8177 73.5795 65.0074 72.3496C65.055 72.3023 65.055 72.3023 65.1026 72.255L65.6261 67.3354Z" fill="#F7A9A0"/>
<path d="M60.9148 63.7402C60.9148 63.7402 60.8672 63.7402 60.8672 63.7875V63.8348C62.628 65.3013 63.0563 67.5245 63.1515 69.7005C62.8184 68.7544 62.1045 68.0922 60.8672 68.4706C60.8196 68.4706 60.8196 68.5652 60.8672 68.6125C61.6762 68.6125 62.3901 69.1329 62.628 69.8897C62.8184 70.5047 62.9611 71.1196 63.0563 71.7819C63.1039 71.9711 63.437 72.0184 63.437 71.7819V71.7346C64.3888 69.1329 63.5798 64.9228 60.9148 63.7402Z" fill="#222222"/>
<path d="M82.2823 81.0537C80.7595 83.7973 79.5222 86.6355 78.5228 89.6156C78.2848 90.3725 78.0945 91.1293 77.9041 91.8862C77.9041 91.9335 77.9041 91.9808 77.8565 92.0754C77.8565 92.1227 77.8565 92.17 77.8089 92.2173C77.7614 92.5011 77.6662 92.9742 77.5234 93.5891C77.5234 93.6364 77.5234 93.6364 77.5234 93.6837C77.5234 93.6837 77.5234 93.6837 77.5234 93.731V93.6837C74.906 88.433 73.7163 82.6147 74.0494 76.749L75.2391 77.3167L76.0006 77.7424L76.762 78.1208L77.4282 78.452L77.8089 78.6412L78.4752 78.9723L79.1414 79.3034L79.7601 79.6345L80.3312 79.9184L82.2823 81.0537Z" fill="#F7A9A0"/>
<path d="M82.2823 81.0537C80.7595 83.7973 79.5222 86.6355 78.5228 89.6156C78.2848 90.3725 78.0945 91.1294 77.9041 91.8862C77.9041 91.9335 77.9041 91.9808 77.8565 92.0754C77.8565 92.1227 77.8565 92.17 77.8089 92.2173C77.7614 92.5012 77.6662 92.9742 77.5234 93.5891C77.5234 93.6364 77.5234 93.6364 77.5234 93.6838C74.906 88.433 73.7163 82.6147 74.0494 76.749L75.2391 77.3167C75.4771 77.4586 75.7626 77.6005 76.0006 77.7424L76.762 78.1208L77.4282 78.452L77.8565 78.6885L78.5228 79.0196C78.7607 79.1142 78.9511 79.2561 79.189 79.3507L79.8077 79.6819L80.3788 79.9657L82.2823 81.0537Z" fill="#222222"/>
<path d="M92.847 49.9277C92.847 49.9277 97.8915 54.2797 96.9873 60.5711C96.0831 66.8625 92.6091 72.6335 91.9904 72.7754C91.3718 72.9173 92.847 49.9277 92.847 49.9277Z" fill="#222222"/>
<path d="M93.0852 71.4036C91.5624 78.0734 88.9926 84.3175 85.7089 86.8246C83.6626 88.4329 81.1404 89.379 78.523 89.5682C77.6188 89.6155 76.7146 89.6155 75.858 89.4736C74.4779 85.3582 73.8592 81.0535 74.0972 76.7016C74.24 73.9107 74.7634 71.1671 75.5725 68.5181C76.0008 67.1463 76.5242 65.7744 77.1429 64.4499C77.0953 64.2607 77.0953 64.0242 77.1905 63.7877C77.3333 63.5039 77.5236 63.3147 77.8091 63.1254C78.8085 61.1387 79.9982 59.2938 81.3783 57.5909C81.6639 57.2598 81.9494 56.8814 82.2349 56.5502C82.3777 56.361 82.5205 56.1718 82.7108 56.0299C85.3282 53.0971 88.4691 50.6373 91.9907 48.7451C92.419 49.2182 92.8473 49.6912 93.1804 50.2115L93.2756 50.3061C93.9418 51.2995 94.3701 52.9551 94.5605 54.9892C94.9888 59.3884 94.4177 65.5379 93.0852 71.4036Z" fill="#F7A9A0"/>
<path d="M87.8503 69.1326C87.8503 69.0853 87.9454 69.2272 87.8978 69.2745C87.5171 70.5517 87.3268 72.1127 88.3737 72.8223C88.4213 72.8696 88.3737 72.9169 88.3261 72.8696C86.9937 72.3019 87.2792 70.2679 87.8503 69.1326Z" fill="#222222"/>
<path d="M89.373 68.045C91.5146 68.4234 90.6104 72.6334 88.6116 72.3023C86.6129 71.9712 87.5647 67.7611 89.373 68.045Z" fill="#222222"/>
<path d="M76.2386 78.8773C76.4766 79.2557 76.6669 79.776 77.0952 79.918C77.5711 80.0599 78.0946 80.0599 78.5705 80.0126C78.6181 80.0126 78.6181 80.0126 78.6181 80.0599V80.1072C78.0946 80.5329 77.3808 80.5802 76.7621 80.2964C76.2862 80.0126 76.0007 79.4449 76.0959 78.8773C76.0959 78.83 76.1911 78.83 76.2386 78.8773Z" fill="#222222"/>
<path d="M84.4716 74.6679C84.4716 74.6679 84.2813 76.6547 84.0433 77.6008C83.9957 77.6954 81.4735 76.8439 78.523 77.1277C78.0947 77.175 78.1423 76.8439 78.6658 76.6547C79.7127 76.3236 80.9976 76.0397 83.3771 76.6074C83.5198 76.3709 83.615 73.5326 83.7578 73.5326C84.4716 73.7692 85.1379 74.1003 85.7565 74.4787C86.28 70.316 86.0897 66.106 86.6607 61.9905C86.6607 61.9432 86.7083 61.8486 86.8035 61.8486C86.8511 61.8486 86.9463 61.8959 86.9463 61.9905C87.4221 66.3898 86.9463 71.1675 86.518 75.5194C86.518 76.0397 84.8047 74.9045 84.4716 74.6679Z" fill="#222222"/>
<path d="M80.9973 65.0644C80.4262 65.1118 79.8552 65.1591 79.2365 65.1118C78.5703 65.1118 78.0468 65.2064 77.4281 64.8279C77.2854 64.7333 77.1902 64.5914 77.1426 64.4022C77.095 64.213 77.095 63.9765 77.1902 63.7399C77.3329 63.4561 77.5233 63.2669 77.8088 63.0777C78.2371 62.8412 78.713 62.6993 79.2365 62.6993C80.0455 62.6047 80.8545 62.8412 81.5208 63.3142C81.9491 63.6453 81.9967 64.213 81.6636 64.6387C81.4732 64.9225 81.2828 65.0171 80.9973 65.0644Z" fill="#222222"/>
<path d="M91.7048 62.9833C91.1813 62.6995 90.7054 62.4157 90.1819 62.0845C89.6109 61.7534 89.135 61.5169 88.8019 60.9019C88.6591 60.5235 88.8019 60.0978 89.1826 59.8613C89.944 59.4355 90.7054 59.672 91.4193 60.0978C92.1331 60.4762 92.7042 61.0912 92.9897 61.848C93.1801 62.321 92.8945 62.8887 92.3711 63.0306C92.1807 63.0779 91.8952 63.0779 91.7048 62.9833Z" fill="#222222"/>
<path d="M76.334 67.052C77.143 66.8628 78.0472 66.9101 78.8086 67.1939C79.2369 67.3358 79.6176 67.5723 79.9507 67.9035C80.2839 68.2346 80.5694 68.6603 80.7122 69.1334L80.9977 69.9375L80.1887 69.7483C79.6176 69.6064 78.999 69.5118 78.3803 69.5118C77.7617 69.4645 77.143 69.6064 76.5719 69.8902C77.0002 69.3226 77.6189 68.9442 78.3327 68.8495C78.999 68.7076 79.7128 68.7076 80.3791 68.8968L79.8556 69.5118C79.57 68.8495 79.0941 68.3292 78.4755 67.9981C77.8092 67.5723 77.0954 67.2412 76.334 67.052Z" fill="#222222"/>
<path d="M78.2847 70.8359C78.9509 70.7413 79.5696 70.5994 80.1882 70.3629C80.331 70.3156 80.9021 69.9845 80.8545 69.8899C80.8069 69.5587 80.7593 69.2276 80.6641 68.8965C80.8545 69.1803 80.9973 69.5114 81.0449 69.8899C80.9021 70.2683 80.6166 70.5521 80.2834 70.6467C79.6648 70.8832 78.9509 70.9778 78.2847 70.8359Z" fill="#222222"/>
<path d="M82.33 77.0329C82.33 77.0329 80.5692 78.9723 78.8084 79.0196C76.8097 79.0669 76.8097 77.2694 79.0939 76.5598C80.3313 76.1814 82.33 77.0329 82.33 77.0329Z" fill="#222222"/>
<path d="M78.8084 79.0196C79.5699 78.9723 80.3313 78.6885 80.9499 78.2155C80.6168 77.5532 79.7602 76.7491 77.5235 77.6005C77.0476 78.3574 77.5235 79.0669 78.8084 79.0196Z" fill="#FF99BA"/>
<path d="M99.462 49.5494C99.2241 50.7793 97.9392 52.5296 95.8928 54.0906C95.4645 54.4217 94.9887 54.7528 94.5128 55.0366C93.8465 55.4624 93.1327 55.8408 92.4189 56.1246C91.1339 56.6923 89.7539 57.0707 88.3738 57.2599C86.613 57.4964 84.6142 56.9288 82.6631 56.03C85.2805 53.0972 88.4214 50.6374 91.943 48.7453C93.8941 47.7046 95.9404 46.8058 98.0819 46.1436C99.0813 47.5627 99.6048 48.7926 99.462 49.5494Z" fill="#222222"/>
<path d="M92.7046 56.739L92.4191 56.8809C88.8499 58.8677 85.0904 59.1988 81.3784 57.5905C81.664 57.2594 81.9495 56.8809 82.235 56.5498C83.7103 57.3067 85.3283 57.7324 86.9464 57.7797C88.8499 57.827 90.6583 57.2594 92.4191 56.739H92.7046C92.7046 56.739 92.7046 56.6917 92.7046 56.739Z" fill="#222222"/>
<path d="M92.1622 116.478L83.1802 145.11L92.494 147.997L101.476 119.365L92.1622 116.478Z" fill="#EBEBEB"/>
<path d="M120.972 40.8453C99.2718 34.1282 76.1435 46.1433 69.3859 67.7611C62.6282 89.3789 74.7158 112.321 96.4641 119.038C118.212 125.755 141.293 113.74 148.051 92.1225C154.808 70.552 142.673 47.6098 120.972 40.8453C120.972 40.8453 120.972 40.8926 120.972 40.8453ZM141.388 90.0412C135.773 107.969 116.594 117.998 98.558 112.416C80.5217 106.834 70.4328 87.7706 76.0483 69.8425C81.6638 51.9144 100.842 41.886 118.879 47.4678C136.915 53.097 147.004 72.1604 141.388 90.0412Z" fill="#ADB4BD"/>
<path d="M69.814 176.56L83.9003 180.911L97.0349 139L82.9962 134.648L69.814 176.56Z" fill="#222222"/>
<g opacity="0.3">
<path opacity="0.3" d="M76.0482 69.8428C70.4327 87.7709 80.474 106.834 98.5102 112.416C116.547 117.998 135.725 108.017 141.34 90.0887C146.956 72.1606 136.915 53.0973 118.878 47.5154C100.842 41.8863 81.6637 51.9147 76.0482 69.8428Z" fill="white"/>
<path opacity="0.3" d="M74.4777 79.3506C74.1445 97.9882 88.9923 113.409 107.742 113.977L74.4777 79.3506Z" fill="#EBEBEB"/>
<path opacity="0.3" d="M92.4663 50.0228L138.057 97.4683C139.437 95.1505 140.579 92.6907 141.388 90.089C142.34 87.1561 142.863 84.0814 142.911 80.9594L109.265 45.9546C103.412 45.86 97.6059 47.2791 92.4663 50.0228Z" fill="#EBEBEB"/>
<path opacity="0.3" d="M77.2378 66.6264L120.639 111.801C122.733 110.997 124.779 110.051 126.683 108.869L80.4263 60.7607C79.1889 62.6056 78.0944 64.5923 77.2378 66.6264Z" fill="#EBEBEB"/>
<path opacity="0.3" d="M88.5166 52.5299L135.392 101.3C135.63 100.969 135.915 100.638 136.153 100.307L89.516 51.8203C89.1829 52.0095 88.8497 52.246 88.5166 52.5299Z" fill="#EBEBEB"/>
<path opacity="0.3" d="M120.496 48.0361L141.293 69.7012C141.007 68.7552 140.626 67.7618 140.246 66.8157L123.351 49.2187C122.447 48.793 121.495 48.3673 120.496 48.0361Z" fill="#EBEBEB"/>
</g>
<path d="M131.299 87.25C131.299 87.2027 131.299 87.1554 131.347 87.1081C131.489 86.4931 131.204 87.723 131.299 87.2973C131.394 86.8242 131.489 86.3039 131.585 85.8309C131.87 84.0806 132.013 82.3304 131.965 80.5329C131.965 80.2963 131.965 80.0598 131.965 79.776C131.965 79.6814 132.013 80.3436 131.965 79.8233C131.965 79.6814 131.965 79.5395 131.918 79.3503C131.87 78.7826 131.822 78.1677 131.775 77.6C131.632 76.3228 131.394 75.0456 131.061 73.7684C130.966 73.4846 130.871 73.1535 130.823 72.8697C130.728 72.4439 130.966 73.3427 130.823 72.7751C130.776 72.5858 130.728 72.3966 130.633 72.2547C130.395 71.5925 130.157 70.9302 129.871 70.268C129.586 69.6057 129.205 68.8488 128.872 68.1866C128.682 67.8555 128.539 67.5717 128.349 67.2405C128.063 66.7202 128.491 67.4297 128.253 67.0986C128.158 66.9094 128.015 66.7202 127.92 66.5783C126.826 65.0173 125.636 63.5508 124.256 62.2263C124.208 62.179 123.97 61.9425 124.208 62.179C124.446 62.4155 124.113 62.0844 124.065 62.0371L123.447 61.4695C123.019 61.091 122.59 60.7599 122.162 60.4288C121.258 59.7192 120.306 59.057 119.307 58.442C118.164 57.7325 118.022 56.0296 118.783 55.0362C119.592 53.9955 121.115 53.759 122.21 54.5158C128.396 58.3947 133.25 64.1658 135.439 71.1667C136.915 75.8498 137.295 80.8167 136.629 85.689C136.486 86.7769 136.248 87.8649 135.963 88.9056C135.63 90.1355 133.964 90.7978 132.822 90.3247C131.489 89.8517 130.871 88.4326 131.299 87.25Z" fill="white"/>
<path d="M84.3763 92.6426C83.9004 93.8725 84.519 95.2443 85.7564 95.7174C86.9937 96.1904 88.3738 95.5755 88.8496 94.3456C89.3255 93.1157 88.7069 91.7439 87.4696 91.2708C86.2322 90.7978 84.8522 91.4127 84.3763 92.6426Z" fill="white"/>
<path d="M44.6394 93.3051C17.1329 111.848 -4.47256 153.996 5.2832 160.949C14.1824 167.241 54.9186 172.492 68.3863 172.255C72.3362 172.16 75.7627 139.426 71.5272 139.521C66.3876 139.615 36.9775 136.73 36.5016 136.588C35.4547 136.304 49.8266 110.666 56.2035 99.0289C65.1027 82.7091 54.9186 86.3042 44.6394 93.3051Z" fill="#F7A9A0"/>
<path d="M107.838 148.13C108.456 151.347 105.458 152.908 105.458 152.908C105.458 152.908 107.267 154.752 107.314 157.259C107.314 160.098 102.793 161.375 102.793 161.375C103.697 162.841 104.078 164.544 103.983 166.295C103.697 169.038 99.3192 170.978 99.3192 170.978C99.3667 172.775 98.7957 174.573 97.6535 175.944C94.4651 179.587 87.1363 178.404 82.4726 177.695C77.8089 176.985 65.2454 170.646 62.7231 169.653L67.0538 139.852C67.0538 139.852 88.8496 137.108 94.2271 138.716C98.7481 140.088 107.171 144.488 107.838 148.13Z" fill="#F7A9A0"/>
<path d="M105.316 152.388C100.842 149.786 95.8929 148.651 90.9912 147.231C90.9436 147.231 90.896 147.279 90.896 147.326C90.896 147.373 90.896 147.421 90.9436 147.421C95.8453 148.792 100.414 151.063 105.22 152.624C105.268 152.671 105.363 152.624 105.411 152.577C105.411 152.482 105.411 152.388 105.316 152.388Z" fill="#222222"/>
<path d="M102.746 160.997C101.699 160.524 100.557 160.146 99.4146 159.956C98.1772 159.673 96.9875 159.389 95.7502 159.152C93.3232 158.679 90.8485 158.206 88.3739 157.875C88.2787 157.875 88.2311 158.017 88.3263 158.064C90.7533 158.537 93.1804 159.105 95.6074 159.673C96.7972 159.956 98.0345 160.287 99.2242 160.619C100.319 160.997 101.508 161.234 102.651 161.328C102.746 161.328 102.841 161.234 102.793 161.139C102.841 161.044 102.793 160.997 102.746 160.997Z" fill="#222222"/>
<path d="M99.2241 170.93C98.3675 170.41 97.1302 170.315 96.1308 170.173C95.0362 169.984 93.8941 169.748 92.7995 169.558C90.5629 169.133 88.3262 168.707 86.1371 168.187C86.0419 168.187 85.9943 168.328 86.0895 168.376C88.3262 168.896 90.5629 169.464 92.8471 169.937C93.9417 170.173 95.0838 170.41 96.1784 170.646C97.1302 170.836 98.2723 171.214 99.2241 171.025C99.2717 171.025 99.2717 170.977 99.2241 170.93C99.2717 170.93 99.2717 170.93 99.2241 170.93Z" fill="#222222"/>
<path d="M37.2155 135.5C36.9775 135.216 51.2543 110.618 57.6312 97.4675C64.0081 84.3171 57.3933 83.6548 44.687 92.6425C31.1241 102.245 3.23687 131.1 1.00018 158.253C0.286347 167.051 63.0564 174.241 63.0564 174.241L65.8641 137.959C65.8641 137.959 37.6438 135.973 37.2155 135.5Z" fill="#D9772E"/>
<path d="M62.6758 152.198C62.3902 151.583 61.7716 151.158 61.1053 151.158C60.6294 151.158 60.2487 150.921 60.0108 150.495C59.868 150.259 59.8204 150.022 59.8204 149.786C59.7728 149.502 59.7252 149.218 59.6777 148.934C59.5825 149.502 59.3445 150.022 59.5825 150.685C59.8204 151.347 60.4391 151.772 61.1529 151.772C61.6288 151.772 62.0571 152.009 62.2951 152.387C62.4378 152.577 62.4854 152.86 62.533 153.097C62.5806 153.381 62.6282 153.665 62.6758 153.948C62.7234 153.428 62.9137 152.86 62.6758 152.198ZM13.0403 133.608C12.7548 132.993 12.1361 132.567 11.4699 132.567C10.994 132.567 10.6133 132.331 10.3753 131.905C10.2802 131.763 10.2326 131.621 10.2326 131.479C10.1374 131.668 10.0422 131.858 9.89946 132.047V132.094C10.1374 132.756 10.7561 133.182 11.4699 133.182C11.9458 133.182 12.3741 133.419 12.612 133.797C12.7548 133.986 12.8024 134.27 12.85 134.507C12.8976 134.79 12.9452 135.074 12.9927 135.358C13.0879 134.79 13.3259 134.27 13.0403 133.608ZM22.5582 162.794C22.2726 162.179 21.654 161.754 20.9877 161.754C20.5118 161.754 20.1311 161.517 19.8932 161.091C19.7504 160.855 19.7028 160.618 19.7028 160.382C19.6552 160.098 19.6076 159.814 19.56 159.53C19.4649 160.098 19.2269 160.618 19.4649 161.281C19.7028 161.943 20.3215 162.369 21.0353 162.369C21.5112 162.369 21.9395 162.605 22.1774 162.983C22.3202 163.173 22.3678 163.457 22.4154 163.693C22.463 163.977 22.5106 164.261 22.5582 164.544C22.6057 163.977 22.7961 163.457 22.5582 162.794ZM40.4992 115.301C40.2137 114.686 39.5951 114.261 38.8812 114.261C38.4053 114.261 37.977 114.024 37.7867 113.598C37.6439 113.362 37.5963 113.125 37.5963 112.889C37.5487 112.605 37.5011 112.321 37.4535 112.037C37.3584 112.605 37.1204 113.125 37.3584 113.788C37.5963 114.45 38.215 114.876 38.9288 114.876C39.4047 114.876 39.833 115.112 40.0709 115.491C40.2137 115.68 40.3089 115.916 40.3089 116.2C40.3565 116.484 40.4041 116.768 40.4517 117.052C40.5468 116.484 40.7848 115.964 40.4992 115.301ZM36.359 152.198C36.0735 151.583 35.4548 151.158 34.7886 151.158C34.3127 151.158 33.9319 150.921 33.694 150.495C33.5512 150.259 33.5036 150.022 33.5036 149.786C33.4561 149.502 33.4085 149.218 33.3609 148.934C33.2657 149.502 33.0278 150.022 33.2657 150.685C33.5036 151.347 34.1223 151.772 34.8361 151.772C35.312 151.772 35.7403 152.009 35.9783 152.387C36.121 152.577 36.2162 152.86 36.2162 153.097C36.2638 153.381 36.3114 153.665 36.359 153.948C36.4066 153.428 36.6445 152.86 36.359 152.198ZM52.92 89.6627C52.6345 89.0478 52.0158 88.6221 51.302 88.6221H51.1116L50.3502 89.0005C50.6357 89.1897 50.9213 89.2843 51.2544 89.2843C51.7303 89.2843 52.1586 89.5208 52.3965 89.8993C52.5393 90.0885 52.6345 90.3723 52.6345 90.6088C52.6821 90.8926 52.7296 91.1765 52.7772 91.4603C52.9676 90.8926 53.2055 90.325 52.92 89.6627ZM50.9213 160.713C50.3026 160.429 49.5412 160.618 49.0653 161.091C48.7322 161.422 48.2563 161.517 47.828 161.422C47.59 161.375 47.3521 161.233 47.1617 161.044C46.9238 160.855 46.6858 160.713 46.4479 160.571C46.781 161.044 47.019 161.564 47.6376 161.895C48.2563 162.179 49.0177 162.037 49.4936 161.564C50.0171 161.044 50.8737 161.044 51.3971 161.517C51.6351 161.706 51.873 161.848 52.111 161.99C51.7779 161.564 51.5399 160.997 50.9213 160.713ZM26.6032 119.984C25.9846 119.701 25.2231 119.89 24.7473 120.363C24.4141 120.694 23.9382 120.789 23.5099 120.694C23.272 120.647 23.034 120.505 22.8437 120.316C22.6057 120.174 22.3678 119.984 22.1299 119.842C22.463 120.316 22.7009 120.836 23.3196 121.167C23.9382 121.451 24.6997 121.309 25.2231 120.836C25.5563 120.505 26.0322 120.363 26.4605 120.457C26.6984 120.505 26.9364 120.599 27.1267 120.789C27.3647 120.978 27.6026 121.12 27.8405 121.262C27.5074 120.789 27.2695 120.221 26.6032 119.984ZM10.0422 150.401C9.37598 150.164 8.66214 150.306 8.18625 150.779C7.85312 151.11 7.37723 151.205 6.94893 151.11C6.71099 151.063 6.47304 150.921 6.28268 150.732C6.04474 150.543 5.80679 150.401 5.56885 150.259C5.90197 150.732 6.13992 151.252 6.75858 151.583C7.37723 151.867 8.13866 151.725 8.61455 151.252C8.94767 150.921 9.42356 150.779 9.85187 150.874C10.0898 150.921 10.3278 151.016 10.5181 151.205C10.7561 151.394 10.994 151.536 11.2319 151.678C10.9464 151.205 10.7085 150.685 10.0422 150.401ZM39.3571 130.77C38.7384 130.486 37.977 130.675 37.5011 131.148C37.168 131.479 36.6921 131.574 36.2638 131.479C36.0259 131.432 35.7879 131.29 35.5976 131.101C35.3596 130.959 35.1217 130.77 34.8837 130.628C35.2169 131.101 35.4548 131.621 36.0735 131.952C36.6921 132.236 37.4535 132.094 37.977 131.621C38.3101 131.29 38.786 131.148 39.2143 131.243C39.3095 131.243 39.3571 131.29 39.4047 131.29L39.6426 130.912C39.5475 130.864 39.4523 130.817 39.3571 130.77ZM23.4148 140.183C22.7485 140.42 22.3202 141.035 22.3202 141.744C22.3202 142.217 22.0823 142.643 21.7016 142.879C21.5112 143.021 21.2257 143.116 20.9877 143.116C20.7022 143.163 20.4166 143.211 20.1311 143.258C20.7022 143.352 21.2257 143.589 21.8919 143.305C22.5106 143.021 22.9389 142.406 22.9389 141.697C22.9389 141.224 23.1768 140.845 23.6051 140.562C23.8431 140.42 24.081 140.372 24.319 140.372C24.6045 140.325 24.89 140.278 25.1756 140.183C24.6521 140.183 24.081 139.947 23.4148 140.183ZM38.4529 98.7451C37.7867 98.9816 37.3584 99.5965 37.3584 100.306C37.3584 101.063 36.7873 101.631 36.0259 101.678C35.7403 101.725 35.4548 101.772 35.1693 101.82C35.7403 101.914 36.2638 102.151 36.9301 101.867C37.5487 101.583 37.977 100.968 37.977 100.259C37.977 99.7857 38.215 99.4073 38.6433 99.1708C38.8812 99.0289 39.1192 98.9816 39.3571 98.9816C39.6426 98.9343 39.9282 98.887 40.2137 98.8397C39.6426 98.7451 39.1192 98.5085 38.4529 98.7451ZM36.359 168.045C35.6927 168.281 35.2644 168.896 35.2644 169.606C35.2644 169.795 35.2169 169.984 35.1693 170.174L35.7879 170.268C35.8831 170.079 35.9307 169.843 35.9307 169.606C35.9307 169.133 36.1686 168.755 36.5969 168.471C36.8349 168.329 37.0728 168.281 37.3108 168.281C37.5963 168.234 37.8818 168.187 38.1674 168.14C37.5963 168.045 37.0252 167.808 36.359 168.045ZM49.5888 140.183C48.9225 140.42 48.4942 141.035 48.4942 141.744C48.4942 142.217 48.2563 142.643 47.8756 142.879C47.6852 143.021 47.3997 143.069 47.1617 143.116C46.8762 143.163 46.5906 143.211 46.3051 143.258C46.8762 143.352 47.4473 143.589 48.0659 143.305C48.6846 143.021 49.1129 142.406 49.1129 141.697C49.1129 141.224 49.3508 140.845 49.7791 140.609C50.0171 140.467 50.255 140.42 50.493 140.42C50.7785 140.372 51.064 140.325 51.3496 140.278C50.8261 140.183 50.255 139.947 49.5888 140.183ZM53.967 104.753C54.1097 104.469 54.2525 104.185 54.3953 103.901C54.1573 104.138 54.0145 104.422 53.967 104.753ZM52.5869 106.408C52.3013 106.456 52.0158 106.503 51.7303 106.597C52.111 106.692 52.4917 106.739 52.8724 106.787C52.9676 106.645 53.0628 106.456 53.1104 106.314C52.9676 106.361 52.7772 106.408 52.5869 106.408Z" fill="white"/>
<path d="M24.8898 135.926C26.0795 136.115 58.9636 137.156 65.864 138.244C65.9592 138.244 66.0068 137.865 65.864 137.865C44.4489 135.027 26.0795 135.122 24.6518 135.263C22.9386 135.358 22.6531 135.595 24.8898 135.926Z" fill="#222222"/>
<path d="M37.4535 135.879C37.4535 135.832 42.6883 126.323 43.2593 125.803C43.8304 125.283 45.1153 124.053 45.6388 123.485C46.7333 122.303 47.7327 121.12 48.7797 119.89C48.8749 119.796 48.7321 119.654 48.6369 119.748C47.5424 120.884 46.4002 121.924 45.2105 122.965L43.4497 124.479C43.4021 124.526 48.4466 115.16 49.3032 113.504C49.3507 113.362 49.2556 113.315 49.1604 113.41C48.0183 114.971 37.739 133.656 36.4541 135.642C36.4541 135.642 36.8348 135.784 37.4535 135.879Z" fill="#222222"/>
<path d="M11.5176 164.828C21.6065 167.808 60.7723 173.768 62.8187 174.1C62.8663 173.39 62.9614 172.681 63.1042 171.971C63.1042 171.876 63.2946 171.876 63.2946 171.971C63.3897 172.964 63.3897 173.958 63.3897 174.951C63.3897 175.14 24.8426 169.89 11.5176 164.923C11.47 164.923 11.47 164.828 11.5176 164.828Z" fill="#222222"/>
<path d="M54.8236 170.458C55.2519 167.998 55.5375 165.491 55.6802 162.937C55.9182 160.477 56.1085 158.017 56.3465 155.557C56.7272 150.59 57.2507 145.623 57.3459 140.609C57.3459 140.562 57.2983 140.515 57.2507 140.515C57.2031 140.515 57.1555 140.562 57.1555 140.609C56.2513 145.576 55.8706 150.59 55.4423 155.605C55.2044 158.112 55.0616 160.619 54.8712 163.126C54.6333 165.538 54.5857 167.998 54.6333 170.411C54.6333 170.6 54.8236 170.6 54.8236 170.458Z" fill="#222222"/>
<path d="M152.095 127.505H125.112V185.499H152.095V127.505Z" fill="#C4C4C4"/>
<path d="M152.095 127.505H145.909V185.499H152.095V127.505Z" fill="#ADB4BD"/>
<path d="M187.692 105.556H160.709V185.452H187.692V105.556Z" fill="#C4C4C4"/>
<path d="M187.692 105.556H181.505V185.452H187.692V105.556Z" fill="#ADB4BD"/>
<path d="M116.594 140.561H89.6108V185.499H116.594V140.561Z" fill="#C4C4C4"/>
<path d="M116.642 140.561H110.455V185.499H116.642V140.561Z" fill="#ADB4BD"/>
<path d="M223.241 76.417H196.258V185.499H223.241V76.417Z" fill="#C4C4C4"/>
<path d="M223.289 76.417H217.102V185.499H223.289V76.417Z" fill="#ADB4BD"/>
<path d="M154.951 176.37L135.154 179.918C124.494 181.715 111.788 182.188 93.3706 180.296L113.263 176.985C129.396 178.31 144.291 178.12 154.951 176.37Z" fill="#CC6E2E"/>
<path d="M156.188 182.804L134.916 186.257C142.149 185.074 149.668 182.993 154.998 180.391C184.599 166.153 197.019 116.91 197.21 116.437H221.052C220.861 116.91 218.054 124.951 206.204 147.468C198.828 160.855 187.977 170.694 174.938 177.08C169.608 179.729 163.421 181.574 156.188 182.804Z" fill="#DEA278"/>
<path d="M191.737 113.977L197.305 116.436C197.115 116.909 185.408 165.301 155.093 180.391C136.629 189.568 120.829 189.048 93.6083 186.824L93.418 180.344C119.83 182.52 140.103 180.911 152.714 174.336C181.22 159.483 191.689 114.071 191.737 113.977Z" fill="#D9772E"/>
<path d="M211.296 98.1299L228 119.18L188.644 119.085L211.296 98.1299Z" fill="#DEA278"/>
<path d="M188.644 119.085L181.838 113.881L204.491 92.9258L211.296 98.1292L188.644 119.085Z" fill="#D9772E"/>
</g>
<defs>
<clipPath id="clip0_806_2181">
<rect width="227" height="150" fill="white" transform="translate(1 39)"/>
</clipPath>
</defs>
</svg>
