<svg width="265" height="304" viewBox="0 0 265 304" fill="none" xmlns="http://www.w3.org/2000/svg">
<path d="M109.172 304C169.466 304 218.344 298.102 218.344 290.826C218.344 283.55 169.466 277.652 109.172 277.652C48.878 277.652 0 283.55 0 290.826C0 298.102 48.878 304 109.172 304Z" fill="#C4C4C4"/>
<path d="M151.063 295.882C149.498 296.38 105.758 295.811 104.122 294.742C103.482 294.315 103.198 287.977 103.055 280.215C103.055 280.144 103.055 280.073 103.055 280.002C103.055 278.435 102.984 276.797 102.984 275.088C102.984 274.874 102.984 274.661 102.984 274.376L105.118 251.66L134.42 251.945L131.504 274.447L131.433 275.302L131.291 279.93V280.429C131.291 280.429 147.933 288.12 149.64 289.544C151.347 290.968 152.556 295.383 151.063 295.882Z" fill="#F7A9A0"/>
<path d="M151.063 295.882C149.498 296.38 105.758 295.811 104.122 294.742C103.482 294.315 103.198 287.977 103.055 280.215C103.055 280.144 103.055 280.073 103.055 280.002C103.055 278.435 102.984 276.797 102.984 275.088C102.984 274.874 102.984 274.661 102.984 274.376L131.504 274.447L131.433 275.302L131.291 279.93V280.429C131.291 280.429 147.933 288.12 149.64 289.544C151.347 290.968 152.556 295.383 151.063 295.882Z" fill="#EBEBEB"/>
<path d="M151.063 295.882C150.28 296.167 138.403 296.096 126.739 295.882C124.392 295.811 122.045 295.811 119.84 295.74C111.59 295.526 104.691 295.17 104.051 294.743C103.411 294.315 103.127 288.12 102.984 280.572C102.984 280.5 102.984 280.358 102.984 280.216C102.984 280.073 102.984 280.073 102.984 279.931L131.22 280.002V280.5C131.22 280.5 147.862 288.191 149.569 289.615C151.276 291.04 152.556 295.383 151.063 295.882Z" fill="#D9772E"/>
<path d="M150.565 294.173C143.168 293.888 113.439 293.461 106.114 293.746C106.043 293.746 106.043 293.817 106.114 293.817C113.439 294.244 143.168 294.458 150.565 294.315C150.707 294.244 150.707 294.173 150.565 294.173Z" fill="#222222"/>
<path d="M134.42 280.144C131.504 279.575 127.948 280.002 125.743 281.996C125.672 282.067 125.743 282.21 125.885 282.138C128.659 281.284 131.504 280.714 134.42 280.429C134.491 280.429 134.633 280.358 134.562 280.216C134.562 280.216 134.491 280.144 134.42 280.144Z" fill="#222222"/>
<path d="M136.483 281.426C133.567 280.856 130.011 281.284 127.806 283.278C127.735 283.349 127.806 283.491 127.948 283.42C130.722 282.565 133.567 281.996 136.483 281.782C136.554 281.782 136.696 281.711 136.696 281.64C136.625 281.497 136.554 281.426 136.483 281.426Z" fill="#222222"/>
<path d="M138.546 282.708C135.63 282.138 132.073 282.494 129.869 284.56C129.798 284.631 129.869 284.773 130.011 284.702C132.785 283.847 135.63 283.278 138.546 283.064C138.617 283.064 138.759 282.993 138.688 282.85C138.688 282.779 138.617 282.708 138.546 282.708Z" fill="#222222"/>
<path d="M126.739 295.882C124.392 295.811 122.045 295.811 119.84 295.74C111.59 295.526 104.691 295.17 104.051 294.743C103.411 294.315 103.127 288.12 102.984 280.572C102.984 280.5 102.984 280.358 102.984 280.216C102.984 280.073 102.984 280.073 102.984 279.931C106.896 282.637 120.551 291.752 126.739 295.882Z" fill="#222222"/>
<path d="M133.211 280.073H101.704C101.704 280.073 108.034 206.37 107.821 205.088C107.536 203.45 105.616 195.973 103.198 186.217C102.416 183.155 101.562 179.879 100.709 176.532C98.3616 167.346 95.8012 157.305 93.5253 148.618C90.1115 135.515 87.48 125.403 87.48 125.403H114.222C114.222 125.403 117.351 135.301 121.263 148.119C127.664 168.984 136.198 197.753 137.052 204.732C138.261 216.126 133.211 280.073 133.211 280.073Z" fill="#222222"/>
<path d="M131.789 274.732C126.952 274.661 128.375 274.59 123.538 274.518C121.191 274.518 105.687 274.376 103.482 274.732C103.411 274.732 103.411 274.803 103.482 274.803C105.687 275.159 121.191 275.017 123.538 275.017C128.375 274.946 126.952 274.946 131.789 274.803C131.86 274.803 131.86 274.803 131.86 274.732C131.86 274.661 131.86 274.732 131.789 274.732Z" fill="#ADB4BD"/>
<path d="M113.724 200.602C112.728 196.044 111.163 191.558 109.812 187.072C107.109 177.957 104.336 168.913 101.562 159.869C100.211 155.312 98.7882 150.754 97.3658 146.268C96.6546 143.989 95.9433 141.71 95.2321 139.431C94.5209 137.224 93.7386 134.945 93.0985 132.738C92.814 131.812 92.6717 132.31 93.0274 133.521C93.6675 135.871 94.3787 138.221 95.0188 140.571C96.3701 145.2 97.7214 149.899 99.1438 154.528C101.918 163.786 104.62 173.043 107.394 182.229C108.816 186.858 110.168 191.487 111.59 196.115C112.301 198.323 112.87 200.531 113.297 202.809C113.653 205.159 113.795 207.58 113.582 210.002C113.297 214.844 112.728 219.615 112.301 224.457C111.875 229.3 111.448 234.142 110.95 238.913C110.097 248.527 109.172 258.14 108.319 267.754C108.247 268.964 108.105 270.175 108.034 271.386C107.963 271.813 108.603 271.742 108.674 271.386C109.741 261.915 110.523 252.372 111.377 242.83C112.23 233.288 113.155 223.888 114.008 214.417C114.222 212.067 114.506 209.646 114.506 207.296C114.435 205.017 114.222 202.809 113.724 200.602Z" fill="#ADB4BD"/>
<path d="M111.092 125.403C109.243 139.787 105.687 166.705 103.127 186.217C97.0813 162.575 87.4087 125.403 87.4087 125.403H111.092Z" fill="#ADB4BD"/>
<path d="M117.636 296.309C116.071 296.808 72.3309 296.38 70.6951 295.312C70.055 294.885 69.7705 288.547 69.5571 280.785V280.571C69.486 279.005 69.486 277.367 69.486 275.658C69.486 275.444 69.486 275.231 69.486 274.946C69.4149 263.766 70.1972 252.229 70.1972 252.229L98.7882 252.443L98.0059 274.946V275.872L97.8636 280.5V280.999C97.8636 280.999 114.506 288.689 116.213 290.043C117.92 291.396 119.2 295.811 117.636 296.309Z" fill="#F7A9A0"/>
<path d="M117.635 296.309C116.071 296.808 72.3307 296.38 70.6949 295.312C70.0548 294.885 69.7703 288.547 69.557 280.785V280.571C69.4858 279.005 69.4858 277.367 69.4858 275.658C69.4858 275.444 69.4858 275.231 69.4858 274.946H98.0057V275.872L97.8635 280.5V280.999C97.8635 280.999 114.506 288.689 116.213 290.043C117.92 291.396 119.2 295.811 117.635 296.309Z" fill="#EBEBEB"/>
<path d="M117.635 296.309C116.071 296.808 72.3309 296.381 70.6951 295.312C70.055 294.885 69.7705 288.547 69.5571 280.785V280.572L97.7925 280.5V280.999C97.7925 280.999 114.435 288.69 116.142 290.043C117.849 291.396 119.2 295.811 117.635 296.309Z" fill="#D9772E"/>
<path d="M117.209 294.6C109.812 294.315 80.083 294.03 72.7574 294.315C72.6863 294.315 72.6863 294.386 72.7574 294.386C80.083 294.814 109.812 294.885 117.209 294.743C117.28 294.671 117.28 294.6 117.209 294.6Z" fill="#222222"/>
<path d="M100.993 280.643C98.0769 280.073 94.5208 280.5 92.316 282.565C92.2449 282.636 92.316 282.779 92.4582 282.708C95.232 281.853 98.0769 281.283 100.993 280.999C101.064 280.999 101.206 280.927 101.135 280.785C101.064 280.714 101.064 280.643 100.993 280.643Z" fill="#222222"/>
<path d="M103.055 281.925C100.139 281.355 96.5833 281.782 94.3785 283.847C94.3074 283.919 94.3785 284.061 94.5207 283.99C97.2945 283.135 100.139 282.566 103.055 282.281C103.126 282.281 103.269 282.21 103.269 282.138C103.198 281.996 103.126 281.925 103.055 281.925Z" fill="#222222"/>
<path d="M105.118 283.207C102.202 282.637 98.6458 283.064 96.441 285.129C96.3699 285.2 96.441 285.343 96.5832 285.272C99.357 284.417 102.202 283.847 105.118 283.563C105.189 283.563 105.331 283.491 105.331 283.42C105.331 283.278 105.26 283.207 105.118 283.207Z" fill="#222222"/>
<path d="M113.226 125.403C113.226 125.403 112.586 138.221 109.67 148.333C109.456 149.187 109.172 149.971 108.887 150.754C106.185 151.822 103.624 153.175 101.206 154.742C101.206 154.742 100.922 165.067 100.566 176.532C100.21 189.35 99.8549 203.664 99.926 206.726C100.21 218.12 98.5036 280.572 98.5036 280.572L66.9966 280.714C66.9966 280.714 72.6863 210.927 72.6863 206.797C72.6152 200.103 74.1799 170.551 75.4601 148.974C76.2424 135.657 76.8114 125.474 76.8114 125.474L113.226 125.403Z" fill="#222222"/>
<path d="M97.508 274.946C92.6717 274.875 94.0941 274.804 89.2578 274.804C86.9108 274.804 71.4063 274.732 69.2015 275.089C69.2015 275.089 69.1304 275.089 69.1304 275.16C69.1304 275.231 69.1304 275.231 69.2015 275.231C71.4063 275.587 86.9108 275.373 89.2578 275.373C94.0941 275.302 92.6717 275.302 97.508 275.16C97.5791 275.089 97.5791 274.946 97.508 274.946Z" fill="#ADB4BD"/>
<path d="M79.514 130.031C78.945 147.62 78.3049 165.209 77.5226 182.799C76.7402 200.388 75.6734 218.119 74.1799 235.708C73.3264 245.535 72.6152 259.35 71.5483 269.178C71.5483 269.249 71.6195 269.249 71.6195 269.178C73.8954 251.731 75.1756 230.154 76.3135 212.565C77.4515 194.976 78.2338 177.387 78.8028 159.797C79.1584 149.828 79.3718 139.858 79.6562 129.96C79.7274 129.818 79.514 129.889 79.514 130.031Z" fill="#ADB4BD"/>
<path d="M110.239 150.042C107.109 151.323 104.122 152.961 101.206 154.741C101.135 154.813 101.135 154.813 101.206 154.884C101.206 154.884 101.277 154.955 101.277 154.884C104.336 153.388 107.394 151.964 110.381 150.326C110.452 150.255 110.523 150.113 110.452 150.042C110.452 150.042 110.31 150.042 110.239 150.042Z" fill="#ADB4BD"/>
<path d="M110.452 139.218C110.239 140.357 109.954 141.425 109.741 142.565C109.527 143.704 109.314 144.701 109.101 145.698C108.887 146.695 108.39 147.621 107.607 148.333C107.18 148.689 106.754 149.045 106.327 149.401C106.114 149.614 105.829 149.757 105.616 149.971C105.616 149.828 105.687 149.686 105.687 149.543L105.9 148.261C106.043 147.336 106.185 146.41 106.327 145.413C106.611 143.562 106.896 141.71 107.252 139.859L107.18 139.787C107.18 139.787 107.18 139.787 107.109 139.859C106.683 141.71 106.114 143.49 105.758 145.342C105.545 146.268 104.833 150.683 104.833 151.039C104.833 151.395 104.762 151.68 104.762 152.036C104.691 152.392 104.691 152.677 104.762 153.033C104.762 153.104 104.833 153.104 104.833 153.104C104.833 153.104 104.905 153.104 104.905 153.033C105.047 152.748 105.118 152.392 105.189 152.036C105.26 151.68 105.331 151.395 105.402 151.039C105.402 150.896 105.474 150.825 105.474 150.683C105.9 150.398 106.327 150.042 106.754 149.757C107.18 149.472 107.607 149.116 108.034 148.76C108.816 148.119 109.385 147.265 109.599 146.268C109.883 145.199 110.025 144.131 110.096 143.063C110.239 141.781 110.381 140.499 110.523 139.289C110.523 139.146 110.452 139.146 110.452 139.218Z" fill="#ADB4BD"/>
<path d="M96.299 92.432C100.637 99.6956 119.2 115.362 125.743 115.718C130.438 116.003 146.867 102.971 151.276 98.4138C155.544 93.9987 140.11 82.0352 137.407 84.4564C133.638 87.8745 125.388 97.7017 123.539 97.9865C122.259 98.2001 114.364 94.4972 102.131 87.5185C95.3745 83.6731 93.7386 88.0882 96.299 92.432Z" fill="#F7A9A0"/>
<path d="M142.955 77.5489C145.586 76.0535 148.502 74.1308 151.632 73.6323C154.761 73.1338 158.104 76.8368 158.317 77.9762C158.53 79.1156 158.601 86.7351 155.543 87.3048C152.485 87.8745 153.338 81.8928 153.054 81.2519C152.769 80.611 152.556 79.8277 151.987 79.9701C151.418 80.1125 141.959 86.8063 141.959 86.8063L142.955 77.5489Z" fill="#F7A9A0"/>
<path d="M143.239 77.9761C143.382 77.9761 151.205 73.205 154.334 72.7065C157.464 72.208 160.806 75.911 161.02 77.0504C161.233 78.1898 161.375 85.8094 158.246 86.3791C155.117 86.9487 156.041 80.967 155.757 80.3261C155.472 79.6852 155.259 78.9019 154.69 79.0443C154.121 79.1867 144.662 85.8806 144.662 85.8806L143.239 77.9761Z" fill="#F7A9A0"/>
<path d="M157.037 86.0942C156.61 85.5958 156.326 85.0261 156.183 84.3852C155.97 83.7443 155.899 83.0322 155.97 82.3913C156.041 81.8216 156.041 81.1807 156.041 80.611C155.97 80.0413 155.685 79.4716 155.33 79.0443C154.974 78.6171 154.619 78.9019 154.192 79.1155C153.623 79.4716 153.125 79.8277 152.627 80.1837C152.058 80.611 151.56 80.967 150.991 81.3943C150.422 81.8216 149.853 82.2488 149.356 82.6761C149.285 82.7473 149.356 82.7473 149.427 82.7473C149.925 82.4625 150.422 82.1064 150.849 81.7504C151.418 81.3943 151.916 80.967 152.485 80.611C153.054 80.2549 153.481 79.8989 153.979 79.5428C154.192 79.4004 154.548 79.1155 154.761 79.1155C154.974 79.1155 155.259 79.6852 155.33 79.8989C155.543 80.4686 155.614 81.0382 155.543 81.6079C155.472 82.1776 155.472 82.8185 155.543 83.3882C155.614 83.9579 155.757 84.4564 155.97 84.9549C156.254 85.3821 156.61 85.8094 156.966 86.1654C157.037 86.2367 157.108 86.1654 157.037 86.0942Z" fill="#222222"/>
<path d="M134.776 87.8743C134.776 87.8743 142.03 78.4744 143.595 76.5517C146.653 72.7775 160.806 63.8762 162.869 63.3065C164.932 62.7368 166.496 66.9382 156.966 73.276C151.916 76.6229 151.561 79.8986 151.916 81.6077C152.272 83.3168 154.548 86.2364 157.393 85.6667C160.237 85.0971 161.447 80.5395 164.007 79.5426C166.567 78.5456 165.714 83.8153 164.291 86.9485C162.798 90.0106 160.451 92.6454 157.535 94.4257C155.188 95.7787 148.005 100.55 148.005 100.55L134.776 87.8743Z" fill="#F7A9A0"/>
<path d="M160.664 82.9611C159.74 84.0293 158.673 85.3111 157.25 85.5959C155.828 85.8808 154.619 85.0975 153.694 84.0293C152.699 82.9611 152.201 81.6081 152.201 80.1127C152.343 78.8309 152.841 77.5491 153.623 76.4809C154.619 75.1991 155.757 74.1309 157.108 73.2052C157.179 73.134 157.108 73.0628 157.037 73.134C155.828 73.9885 151.916 76.4097 151.774 80.1839C151.774 81.6793 152.272 83.1035 153.267 84.1717C154.121 85.2399 155.259 86.1656 156.681 86.0232C158.459 85.8808 159.668 84.1717 160.735 82.9611H160.664Z" fill="#222222"/>
<path d="M137.123 84.6699L149.071 106.318C149.071 106.318 131.149 116.857 125.388 116.288C119.627 115.718 102.771 102.045 96.1568 93.0728C92.174 87.6608 94.9477 83.0321 102.771 87.0911C110.808 91.2926 122.045 97.0606 122.899 97.2031C123.752 97.3455 137.123 84.6699 137.123 84.6699Z" fill="#ADB4BD"/>
<path d="M125.53 101.832C125.744 102.33 125.886 102.829 125.957 103.327C125.601 102.9 125.317 102.473 125.175 102.046C124.961 101.547 124.819 101.049 124.748 100.55C125.032 100.906 125.317 101.333 125.53 101.832ZM140.75 95.7077C140.821 96.2062 140.964 96.7047 141.177 97.2032C141.39 97.7016 141.675 98.1289 141.959 98.485C141.888 97.488 141.461 96.491 140.75 95.7077ZM107.963 92.2184C108.034 92.7169 108.176 93.2153 108.39 93.7138C108.603 94.2123 108.888 94.6396 109.172 94.9956C109.101 94.4971 108.959 93.9987 108.745 93.5002C108.603 93.0017 108.319 92.5744 107.963 92.2184ZM125.957 112.157C126.455 112.086 126.953 111.944 127.45 111.73C127.948 111.517 128.375 111.232 128.731 110.947C128.233 111.018 127.735 111.161 127.237 111.374C126.81 111.588 126.384 111.873 125.957 112.157ZM143.595 106.033C144.591 105.891 145.587 105.392 146.369 104.752C145.871 104.823 145.373 104.965 144.875 105.179C144.449 105.392 144.022 105.677 143.595 106.033ZM135.629 89.0851C136.127 89.0139 136.625 88.8715 137.123 88.6578C137.621 88.4442 138.048 88.1594 138.403 87.8745C137.905 87.9457 137.407 88.0881 136.91 88.3018C136.483 88.5154 135.985 88.729 135.629 89.0851ZM115.786 98.485C115.502 98.9122 115.217 99.3395 115.075 99.838C114.862 100.336 114.791 100.835 114.72 101.333C115.004 100.906 115.289 100.479 115.431 99.9804C115.644 99.4819 115.786 98.9834 115.786 98.485ZM134.492 101.903C133.923 102.758 133.567 103.755 133.425 104.752C133.709 104.324 133.994 103.897 134.136 103.399C134.278 102.971 134.42 102.473 134.492 101.903ZM101.42 93.1441C101.135 93.5714 100.851 93.9987 100.709 94.4971C100.495 94.9956 100.424 95.4941 100.353 95.9926C100.638 95.5653 100.922 95.138 101.064 94.6396C101.206 94.1411 101.349 93.6426 101.42 93.1441ZM107.465 103.256C107.038 102.971 106.612 102.686 106.114 102.544C105.616 102.33 105.118 102.259 104.62 102.188C105.047 102.473 105.474 102.758 105.972 102.9C106.469 103.114 106.967 103.185 107.465 103.256ZM132.429 95.5653C132.002 95.2805 131.576 94.9956 131.078 94.8532C130.58 94.6396 130.082 94.5683 129.584 94.4971C130.011 94.782 130.438 95.0668 130.935 95.2092C131.362 95.3517 131.86 95.4941 132.429 95.5653ZM120.267 107.671C119.84 107.386 119.414 107.101 118.916 106.959C118.418 106.745 117.92 106.674 117.422 106.603C117.849 106.888 118.276 107.173 118.774 107.315C119.2 107.458 119.769 107.6 120.267 107.671ZM139.043 110.733C138.617 110.448 138.19 110.164 137.692 110.021C137.194 109.808 136.696 109.736 136.198 109.665C136.625 109.95 137.052 110.235 137.55 110.377C138.048 110.591 138.545 110.662 139.043 110.733Z" fill="#F2F2F2"/>
<path d="M138.332 98.6986C137.55 97.0607 134.492 90.5093 133.852 88.8002C133.852 88.8002 133.852 88.729 133.923 88.8002C134.847 90.2956 138.119 96.7046 138.901 98.3425C140.537 101.547 142.031 104.894 143.311 108.312C143.311 108.383 143.24 108.454 143.24 108.383C141.39 105.179 139.897 101.903 138.332 98.6986Z" fill="#222222"/>
<path d="M96.2276 93.0731C101.562 100.337 113.652 110.733 121.12 114.65L98.219 85.5247C94.094 85.2399 93.1694 88.9428 96.2276 93.0731Z" fill="#222222"/>
<path d="M73.5399 144.416C73.6822 144.559 119.84 141.354 120.196 140.856C120.765 140.144 106.114 93.1443 102.487 86.2368C100.922 83.3171 93.4541 82.8899 90.5381 85.6671C83.1414 92.6458 78.0206 115.148 76.9538 121.842C75.1046 133.022 73.1843 144.06 73.5399 144.416Z" fill="#ADB4BD"/>
<path d="M96.4412 100.479C96.6546 100.977 96.7968 101.476 96.868 101.974C96.5124 101.547 96.2279 101.12 96.0856 100.693C95.8723 100.194 95.73 99.6956 95.6589 99.1971C95.9434 99.5532 96.2279 99.9804 96.4412 100.479ZM100.851 118.282C100.993 119.279 101.491 120.276 102.131 121.059C101.989 119.991 101.562 119.065 100.851 118.282ZM106.114 139.075C106.185 139.574 106.327 140.072 106.541 140.571C106.754 141.069 107.038 141.496 107.323 141.853C107.181 140.784 106.754 139.859 106.114 139.075ZM84.7772 113.653C84.8484 114.151 84.9906 114.65 85.204 115.148C85.4173 115.647 85.7018 116.074 85.9863 116.43C85.8441 115.433 85.4173 114.508 84.7772 113.653ZM78.0918 127.254C78.1629 127.753 78.3052 128.251 78.5185 128.75C78.7319 129.248 79.0164 129.675 79.3009 130.032C79.1586 129.035 78.7319 128.038 78.0918 127.254ZM96.2279 134.803C96.299 135.301 96.4412 135.8 96.6546 136.298C96.868 136.797 97.1525 137.224 97.5081 137.58C97.4369 137.081 97.2947 136.583 97.0813 136.084C96.868 135.657 96.5835 135.159 96.2279 134.803ZM109.954 110.164C110.097 111.161 110.594 112.158 111.235 112.941C111.021 111.944 110.594 110.947 109.954 110.164ZM90.1114 107.742C90.6092 107.671 91.1071 107.529 91.6049 107.315C92.1028 107.102 92.5295 106.817 92.8851 106.461C92.3873 106.532 91.8894 106.674 91.3916 106.888C90.8937 107.102 90.467 107.386 90.1114 107.742ZM85.9152 124.619C86.4131 124.548 86.9109 124.406 87.4088 124.192C87.9066 123.979 88.3333 123.694 88.6889 123.409C88.1911 123.48 87.6932 123.623 87.1954 123.836C86.6975 124.05 86.2708 124.335 85.9152 124.619ZM88.12 143.49L88.9023 143.419L89.1868 143.277C89.6847 143.063 90.1114 142.778 90.467 142.493C89.9691 142.565 89.4713 142.707 88.9734 142.921C88.7601 143.063 88.4045 143.277 88.12 143.49ZM105.331 127.539C105.829 127.468 106.327 127.325 106.825 127.112C107.323 126.898 107.75 126.613 108.105 126.329C107.607 126.4 107.11 126.542 106.612 126.756C106.185 126.898 105.758 127.183 105.331 127.539ZM90.0403 93.1442C90.5381 93.073 91.036 92.9305 91.5338 92.7169C92.0317 92.5033 92.4584 92.2184 92.814 91.9336C92.3162 92.0048 91.8183 92.1472 91.3205 92.3609C90.8937 92.5033 90.467 92.7881 90.0403 93.1442ZM85.9152 95.5654C85.6307 95.9926 85.3462 96.4199 85.204 96.9184C84.9906 97.4168 84.9195 97.9153 84.8484 98.4138C85.1329 97.9865 85.4173 97.5593 85.5596 97.0608C85.773 96.5623 85.9152 96.0638 85.9152 95.5654ZM79.7276 117.142C79.4431 117.57 79.1586 117.997 79.0164 118.495C78.803 118.994 78.7319 119.492 78.6608 119.991C78.9453 119.563 79.2297 119.136 79.372 118.638C79.5854 118.21 79.7276 117.712 79.7276 117.142ZM80.2966 136.583C80.0121 137.01 79.7276 137.437 79.5854 137.936C79.372 138.434 79.3009 138.933 79.2297 139.431C79.5142 139.004 79.7987 138.577 79.941 138.078C80.0832 137.651 80.2255 137.153 80.2966 136.583ZM102.273 108.027C101.989 108.455 101.704 108.882 101.562 109.38C101.349 109.879 101.278 110.377 101.206 110.876C101.491 110.448 101.775 110.021 101.918 109.523C102.06 109.095 102.202 108.597 102.273 108.027ZM95.5166 125.545C95.2322 125.972 94.9477 126.4 94.8054 126.898C94.5921 127.397 94.5209 127.895 94.4498 128.394C94.7343 127.966 95.0188 127.539 95.161 127.041C95.3744 126.542 95.4455 126.044 95.5166 125.545ZM113.795 132.666C113.51 133.094 113.226 133.521 113.084 134.019C112.87 134.518 112.799 135.016 112.728 135.515C113.013 135.088 113.297 134.66 113.439 134.162C113.653 133.663 113.724 133.165 113.795 132.666ZM101.349 93.1442C101.064 93.5714 100.78 93.9987 100.637 94.4972C100.424 94.9957 100.353 95.4941 100.282 95.9926C100.566 95.5654 100.851 95.1381 100.993 94.6396C101.206 94.1411 101.349 93.6427 101.349 93.1442ZM107.465 103.256C107.038 102.971 106.612 102.686 106.114 102.544C105.616 102.33 105.118 102.259 104.62 102.188C105.047 102.473 105.474 102.758 105.972 102.9C106.469 103.114 106.967 103.185 107.465 103.256ZM88.8312 133.734C88.4045 133.45 87.9777 133.165 87.4799 133.022C86.982 132.809 86.4842 132.738 85.9863 132.666C86.4131 132.951 86.8398 133.236 87.3376 133.378C87.8355 133.521 88.3333 133.663 88.8312 133.734ZM113.368 120.632C112.515 120.062 111.519 119.706 110.523 119.563C110.95 119.848 111.377 120.133 111.875 120.276C112.373 120.489 112.87 120.632 113.368 120.632ZM81.0078 104.894C81.3634 105.108 81.7901 105.321 82.1457 105.464C82.6436 105.677 83.1414 105.749 83.6393 105.82C83.2126 105.535 82.7858 105.25 82.288 105.108C81.8613 104.965 81.4345 104.823 81.0078 104.823C81.0789 104.823 81.0789 104.894 81.0078 104.894ZM103.198 133.734C102.771 133.45 102.344 133.165 101.846 133.022C101.349 132.809 100.851 132.738 100.353 132.666C100.78 132.951 101.206 133.236 101.704 133.378C102.131 133.521 102.629 133.663 103.198 133.734ZM96.2279 114.721C95.8011 114.436 95.3744 114.151 94.8765 114.009C94.3787 113.795 93.8808 113.724 93.383 113.653C93.8097 113.938 94.2365 114.223 94.7343 114.365C95.2322 114.579 95.73 114.721 96.2279 114.721Z" fill="#F2F2F2"/>
<path d="M102.771 87.0198C102.984 89.085 103.482 93.9273 100.211 93.8561C98.8593 93.7137 97.5792 93.2152 96.5835 92.3607C95.5166 91.5773 94.5209 90.7228 93.5963 89.7259C92.5295 88.6577 91.6049 87.5183 90.7515 86.2365C90.6803 86.1653 90.6092 86.2365 90.6803 86.3077C91.5338 87.5183 92.3161 88.8001 93.2407 89.9395C94.1653 91.0789 95.2321 92.0758 96.4412 92.8591C97.5792 93.7137 98.9305 94.2122 100.353 94.2834C101.633 94.2834 102.7 93.3576 102.913 92.0758C103.269 90.5092 103.198 88.7289 102.771 87.0198Z" fill="#222222"/>
<path d="M108.318 139.004L132.286 144.63L144.733 111.801L120.836 106.176L108.318 139.004Z" fill="#222222"/>
<path d="M109.528 139.289L133.425 144.914L145.871 112.015L121.974 106.46L109.528 139.289Z" fill="#C4C4C4"/>
<path d="M131.22 124.904C130.793 126.186 129.442 126.898 128.161 126.613C127.024 126.399 126.241 125.26 126.455 124.121C126.455 123.978 126.526 123.907 126.526 123.765C127.024 122.483 128.304 121.771 129.584 122.056C130.722 122.269 131.504 123.409 131.22 124.619C131.22 124.762 131.22 124.833 131.22 124.904Z" fill="#F2F2F2"/>
<path d="M86.0573 90.3667C79.1585 99.9802 64.294 122.056 68.6324 127.112C75.8158 135.514 93.454 142.778 99.0015 144.487C101.42 145.199 109.883 127.895 107.678 126.471C104.976 124.762 87.6931 117.997 87.622 117.142C87.5509 116.287 90.7513 104.395 91.8182 94.9954C93.1695 83.3168 88.9733 86.3076 86.0573 90.3667Z" fill="#F7A9A0"/>
<path d="M99.0014 125.189C99.0014 125.189 106.256 123.053 111.092 121.913C113.795 121.272 118.489 120.56 120.694 120.988C123.965 121.628 137.265 126.4 136.198 129.604C135.202 132.524 124.321 127.041 124.321 127.041C124.321 127.041 135.842 131.669 133.993 134.945C132.144 138.221 120.622 130.387 120.622 130.387C120.622 130.387 132.358 135.372 129.939 138.505C128.09 140.855 117.28 134.304 117.28 134.304C117.28 134.304 127.308 138.648 125.53 141.212C123.538 143.989 113.155 138.577 113.155 138.577C107.536 144.202 102.7 144.986 99.0014 144.487C98.1479 144.345 99.0014 125.189 99.0014 125.189Z" fill="#F7A9A0"/>
<path d="M120.907 125.403C129.655 128.18 133.069 132.168 132.998 132.097C130.295 130.032 125.601 127.753 124.321 127.112C123.041 126.471 122.258 126.044 120.907 125.403C120.836 125.403 120.907 125.403 120.907 125.403Z" fill="#222222"/>
<path d="M118.134 129.889C121.69 130.815 125.104 132.453 128.091 134.589C128.233 134.66 128.162 134.732 128.02 134.66C126.384 133.806 119.769 130.744 118.062 129.96C118.062 129.96 118.063 129.889 118.134 129.889Z" fill="#222222"/>
<path d="M115.36 133.592C118.133 134.375 120.694 135.657 122.97 137.437C123.112 137.508 122.97 137.58 122.827 137.508C120.338 136.155 118.347 135.087 115.289 133.663L115.36 133.592Z" fill="#222222"/>
<path d="M102.344 123.694L92.6007 144.416C92.6007 144.416 69.415 131.883 67.7081 126.044C66.0011 120.204 81.7191 94.3546 86.4842 89.085C91.2494 83.8154 92.8141 85.9517 92.6718 92.0046C92.5296 97.9864 87.7644 116.786 87.9067 117.142C88.0489 117.498 102.344 123.694 102.344 123.694Z" fill="#ADB4BD"/>
<path d="M85.5595 115.006C85.7729 115.504 85.9152 116.003 85.9863 116.501C85.6307 116.074 85.3462 115.647 85.2039 115.22C84.9906 114.721 84.8483 114.223 84.7772 113.724C85.0617 114.08 85.3462 114.507 85.5595 115.006ZM74.6068 110.164C74.749 111.161 75.2469 112.158 75.887 112.941C75.8158 112.442 75.6736 111.944 75.4602 111.445C75.2469 111.018 74.9624 110.591 74.6068 110.164ZM78.0206 127.254C78.0917 127.753 78.234 128.251 78.4474 128.75C78.6607 129.248 78.9452 129.675 79.2297 130.032C79.1586 129.035 78.7318 128.038 78.0206 127.254ZM96.2278 134.803C96.2989 135.23 96.4412 135.657 96.5834 136.084L96.7968 135.657C96.6546 135.372 96.4412 135.088 96.2278 134.803ZM85.9152 124.619C86.413 124.548 86.9109 124.406 87.4087 124.192C87.9066 123.979 88.3333 123.694 88.6889 123.409C88.191 123.48 87.6932 123.623 87.1953 123.836C86.6975 124.05 86.2708 124.335 85.9152 124.619ZM89.5424 142.778C89.6846 142.85 89.7557 142.921 89.898 142.992C90.1113 142.85 90.3247 142.707 90.5381 142.565C90.1825 142.565 89.898 142.636 89.5424 142.778ZM90.0402 93.1442C90.5381 93.073 91.0359 92.9305 91.5338 92.7169C92.0316 92.5033 92.4584 92.2184 92.814 91.9336C92.3161 92.0048 91.8183 92.1472 91.3204 92.3609C90.8937 92.5033 90.4669 92.7881 90.0402 93.1442ZM85.9152 95.5654C85.6307 95.9926 85.3462 96.4199 85.2039 96.9184C84.9906 97.4168 84.9194 97.9153 84.8483 98.4138C85.1328 97.9865 85.4173 97.5593 85.5595 97.0608C85.7729 96.6335 85.9152 96.135 85.9152 95.5654ZM79.7275 117.142C79.4431 117.57 79.1586 117.997 79.0163 118.495C78.803 118.994 78.7318 119.492 78.6607 119.991C78.9452 119.563 79.2297 119.136 79.3719 118.638C79.5853 118.21 79.7275 117.712 79.7275 117.142ZM71.9041 124.833C71.6197 125.26 71.3352 125.688 71.1929 126.186C70.9796 126.685 70.9084 127.183 70.8373 127.682C71.1218 127.254 71.4063 126.827 71.5485 126.329C71.7619 125.901 71.9041 125.332 71.9041 124.833ZM80.0832 136.939C80.1543 137.01 80.2254 137.01 80.2254 137.081C80.2254 136.939 80.2965 136.797 80.2965 136.654C80.2254 136.725 80.0832 136.868 80.0832 136.939ZM95.5166 125.474C95.2321 125.901 94.9476 126.329 94.8054 126.827C94.592 127.325 94.5209 127.824 94.4498 128.322C94.7343 127.895 95.0188 127.468 95.161 126.969C95.3744 126.542 95.4455 126.044 95.5166 125.474ZM88.8311 133.734C88.4044 133.45 87.9777 133.165 87.4798 133.022C86.982 132.809 86.4841 132.738 85.9863 132.666C86.413 132.951 86.8397 133.236 87.3376 133.378C87.8354 133.521 88.3333 133.663 88.8311 133.734ZM81.0077 104.894C81.3634 105.108 81.7901 105.321 82.1457 105.464C82.6435 105.677 83.1414 105.749 83.6393 105.82C83.2125 105.535 82.7858 105.25 82.2879 105.108C81.8612 104.965 81.4345 104.823 81.0077 104.823C81.0789 104.823 81.0789 104.894 81.0077 104.894ZM69.5571 119.635C69.9127 119.848 70.3395 120.062 70.6951 120.204C71.1929 120.418 71.6908 120.489 72.1886 120.56C71.7619 120.276 71.3352 119.991 70.8373 119.848C70.4106 119.706 69.9839 119.563 69.5571 119.563V119.635Z" fill="#F2F2F2"/>
<path d="M89.6844 108.241C89.9689 106.817 90.3245 105.464 90.609 104.04C90.7513 103.327 90.8935 102.544 91.1069 101.832C91.178 101.476 91.2491 101.12 91.3202 100.835C91.3914 100.693 91.3914 100.479 91.4625 100.337C91.5336 99.6957 91.4625 100.265 91.6047 99.6957C91.6047 99.6245 91.6759 99.6957 91.6759 99.6957C91.6759 100.052 91.747 99.9093 91.6759 100.194C91.6047 100.479 91.6047 100.621 91.5336 100.835C91.4625 101.191 91.4625 101.547 91.3914 101.832C91.2491 102.544 91.178 103.256 91.0358 103.897C91.0358 103.968 90.9646 104.04 90.9646 104.182V104.111C91.2491 103.327 91.4625 102.615 91.747 101.832H91.8181C91.6759 102.615 91.4625 103.399 91.178 104.111C91.0358 104.538 90.8935 104.965 90.6802 105.393C90.5379 106.318 90.3245 107.244 90.1112 108.17C89.5422 111.018 88.9021 113.938 88.0486 116.715C89.2577 117.285 90.4668 117.783 91.6759 118.353C92.8849 118.923 94.094 119.492 95.3031 120.062C96.5121 120.632 97.7212 121.201 98.9303 121.771C99.4993 122.056 100.068 122.341 100.637 122.626C101.206 122.91 101.846 123.338 102.486 123.623C102.558 123.623 102.486 123.765 102.415 123.694C101.775 123.409 101.064 123.195 100.424 122.911C99.7838 122.626 99.2859 122.412 98.7169 122.127C97.5079 121.557 96.2988 120.988 95.0897 120.418C93.8806 119.848 92.6716 119.279 91.4625 118.709C90.2534 118.139 89.1155 117.498 87.9064 116.929C87.8353 116.929 87.8353 116.858 87.8353 116.858C87.7642 116.858 87.7642 116.786 87.7642 116.715C88.3331 114.009 89.0444 111.161 89.6844 108.241Z" fill="#222222"/>
<path d="M92.7428 131.883C93.454 130.387 96.37 124.406 97.2235 122.981H97.2946C96.7256 124.477 94.023 130.53 93.3118 132.025C91.9605 135.087 90.4669 138.078 88.76 140.927C88.76 140.998 88.6177 140.927 88.6889 140.927C89.7557 137.793 91.3204 134.874 92.7428 131.883Z" fill="#222222"/>
<path d="M75.958 134.233C76.527 134.517 76.9537 134.945 77.5227 135.301L79.0874 136.369C80.0831 137.081 81.1499 137.864 82.2167 138.434C82.2879 138.434 82.2167 138.576 82.1456 138.505C81.0077 137.864 79.9408 137.295 78.874 136.583C77.8072 135.942 76.8115 135.158 75.958 134.304C75.958 134.233 75.958 134.161 75.958 134.233Z" fill="#222222"/>
<path d="M100.211 91.6486C97.8637 92.0759 93.6676 87.9457 92.2451 84.9548C92.174 84.7412 92.6007 82.676 93.0275 80.1837C93.2408 78.6882 93.5253 76.908 93.5964 75.3413L103.269 78.4034C102.558 80.3261 102.131 82.32 101.918 84.3851C101.918 84.5987 101.918 84.8124 101.918 85.026V85.0972C102.131 86.4502 102.487 91.2926 100.211 91.6486Z" fill="#F7A9A0"/>
<path d="M101.989 85.097V85.1683C101.633 85.1683 101.349 85.1683 100.993 85.1683C95.3033 84.6698 94.3787 77.6199 94.3076 75.626L96.7258 76.4093L103.34 78.4744C102.629 80.3971 102.202 82.391 101.989 84.4561C101.989 84.6698 101.989 84.8834 101.989 85.097Z" fill="#222222"/>
<path d="M103.767 59.3901C103.767 59.3901 107.252 60.2447 108.39 63.5204C109.527 66.7961 109.243 70.4278 109.03 70.6415C108.816 70.8551 103.767 59.3901 103.767 59.3901Z" fill="#222222"/>
<path d="M91.8181 65.8701C91.178 69.5019 94.3074 79.329 97.0811 81.2517C101.064 84.0289 106.967 83.6016 109.172 78.9729C111.306 74.4154 107.038 61.7398 104.051 60.0308C99.6415 57.4672 92.7427 60.5293 91.8181 65.8701Z" fill="#F7A9A0"/>
<path d="M102.558 71.1396C102.558 71.1396 102.487 71.2109 102.558 71.2109C102.771 71.8518 102.913 72.6351 102.416 73.0623V73.1336C103.056 72.7775 102.842 71.7093 102.558 71.1396Z" fill="#222222"/>
<path d="M101.776 70.6415C100.709 70.9263 101.278 73.0627 102.273 72.849C103.269 72.6354 102.7 70.4279 101.776 70.6415Z" fill="#222222"/>
<path d="M106.327 70.0005C106.327 70.0005 106.398 70.0005 106.398 70.0717C106.541 70.7838 106.825 71.4959 107.536 71.5671C107.536 71.5671 107.536 71.5671 107.536 71.6383C106.754 71.6383 106.398 70.6414 106.327 70.0005Z" fill="#222222"/>
<path d="M106.754 69.1458C107.821 68.7898 108.461 70.9261 107.465 71.2822C106.47 71.6382 105.83 69.4307 106.754 69.1458Z" fill="#222222"/>
<path d="M100.638 69.8578C100.922 69.7154 101.135 69.5018 101.42 69.3594C101.704 69.2169 101.989 69.0033 102.06 68.6472C102.131 68.4336 102.06 68.22 101.847 68.0776C101.42 67.9351 100.993 68.0063 100.709 68.2912C100.353 68.5048 100.069 68.8609 99.9263 69.2881C99.8552 69.573 99.9974 69.8578 100.282 69.929C100.353 69.929 100.495 69.929 100.638 69.8578Z" fill="#222222"/>
<path d="M107.252 67.7931C106.967 67.7931 106.612 67.7931 106.327 67.7931C105.972 67.8643 105.687 67.7931 105.403 67.6507C105.26 67.5082 105.189 67.2946 105.26 67.081C105.474 66.7249 105.9 66.5113 106.327 66.5825C106.754 66.5825 107.181 66.6537 107.536 66.9385C107.75 67.1522 107.75 67.437 107.607 67.6507C107.536 67.7219 107.394 67.7931 107.252 67.7931Z" fill="#222222"/>
<path d="M103.269 77.3353C103.482 77.4777 103.695 77.5489 103.909 77.5489C104.193 77.4777 104.407 77.3353 104.62 77.1929C104.62 77.1929 104.691 77.1929 104.62 77.1929C104.478 77.4777 104.193 77.7626 103.838 77.7626C103.553 77.7626 103.269 77.6201 103.126 77.3353C103.198 77.3353 103.269 77.3353 103.269 77.3353Z" fill="#222222"/>
<path d="M103.411 75.1278C103.909 75.5551 104.549 75.7687 105.189 75.7687C105.474 75.7687 105.758 75.6975 106.043 75.5551C106.114 75.5551 106.114 75.5551 106.185 75.4839L106.327 75.4127C106.398 75.4127 106.469 75.2702 106.398 75.199V75.1278V75.0566C106.256 74.5581 106.043 73.7748 106.043 73.7748C106.256 73.846 107.323 73.9884 107.252 73.7036C106.541 71.4248 105.687 69.1461 104.478 67.0098H104.407V67.081C105.047 69.2173 106.043 71.2112 106.683 73.3475C106.327 73.2763 105.9 73.2763 105.545 73.2763C105.474 73.3475 106.114 74.7718 106.114 74.9854C105.26 75.2702 104.336 75.2702 103.553 74.9142C103.411 75.0566 103.411 75.1278 103.411 75.1278Z" fill="#222222"/>
<path d="M105.687 75.4123C105.474 75.8395 105.189 76.2668 104.834 76.5517C104.62 76.6941 104.407 76.7653 104.122 76.7653C103.553 76.7653 103.411 76.2668 103.411 75.8395C103.411 75.6259 103.411 75.3411 103.482 75.1274C104.193 75.4123 104.976 75.5547 105.687 75.4123Z" fill="#222222"/>
<path d="M104.834 76.5521C104.62 76.6945 104.407 76.7657 104.122 76.7657C103.553 76.7657 103.411 76.2673 103.411 75.84C103.98 75.6976 104.549 75.9824 104.834 76.5521Z" fill="#FF98B9"/>
<path d="M94.1655 75.1279C95.3746 75.0566 95.5168 71.4249 95.4457 70.0719C95.3746 68.8613 94.5922 65.3007 94.5211 65.0159C94.45 64.731 100.211 66.5113 102.7 64.8022C105.189 63.0932 106.114 60.0311 105.758 58.8917C105.403 57.7523 101.064 56.0433 98.1483 56.8266C95.2323 57.6099 92.5297 62.6659 92.5297 62.6659C92.8142 61.9538 93.0276 61.2417 93.2409 60.5296C92.3163 61.0993 91.6762 62.0962 91.6051 63.2356C91.6051 63.2356 91.3918 61.4553 91.2495 61.4553C91.1073 61.4553 90.1116 63.378 90.8228 64.375C90.8228 64.375 89.6137 66.4401 90.0404 68.078C90.4672 69.7158 92.8142 75.1279 94.1655 75.1279Z" fill="#222222"/>
<path d="M104.407 63.5913C103.767 64.3034 102.985 64.8731 102.131 65.3716C101.135 65.7989 100.14 65.9413 99.073 65.8701C98.0061 65.7989 97.0104 65.5852 96.0147 65.2292C95.1613 64.8731 94.3078 64.4458 93.4543 64.161C93.241 64.0898 93.0987 64.4458 93.3121 64.5883C95.0901 65.8701 97.2238 66.5822 99.4286 66.5822C101.491 66.5822 103.411 65.4428 104.407 63.5913C104.407 63.6625 104.407 63.5913 104.407 63.5913Z" fill="#222222"/>
<path d="M95.0189 73.7745C95.0189 73.7745 92.2452 70.8548 90.8938 71.923C89.5425 72.9912 91.9607 77.4062 93.7387 77.7623C94.6633 78.0471 95.659 77.4775 95.9435 76.5517V76.4805L95.0189 73.7745Z" fill="#F7A9A0"/>
<path d="M91.6763 73.205C92.8853 73.6322 93.881 74.4868 94.3789 75.6261C94.0233 75.1989 93.4543 75.1277 93.0276 75.4837C92.9565 75.4837 92.9565 75.5549 92.8853 75.6261C92.8853 75.6261 92.8853 75.6974 92.9565 75.6974C93.3832 75.4837 93.8811 75.5549 94.2367 75.911C94.5211 76.1958 94.7345 76.4807 94.9479 76.7655C95.019 76.8367 95.2324 76.7655 95.1612 76.6943C94.8768 75.0565 93.3121 73.0625 91.6763 73.205Z" fill="#222222"/>
<path d="M102.06 85.026L99.6418 90.8653L92.4585 83.3882L90.396 85.7382C90.396 85.7382 97.3659 97.5592 97.3659 97.0607L99.8552 92.0759L103.269 95.6365L103.056 86.8775L102.06 85.026Z" fill="#F2F2F2"/>
<path d="M103.482 91.1504C103.411 89.7261 103.34 88.2307 103.198 86.8065C103.198 86.7353 103.127 86.7353 103.127 86.8065C102.842 88.2307 103.127 93.714 103.127 95.067C102.984 94.9246 99.9261 91.9337 99.9261 92.0049C99.3571 92.7882 97.579 96.42 97.4368 96.776C96.37 94.9246 92.1026 88.0883 90.8225 86.308C90.8225 86.308 90.7513 86.2368 90.7513 86.308C90.7513 86.308 90.6802 86.3792 90.7513 86.3792C91.747 88.3731 97.2945 97.5594 97.3657 97.4882C98.2902 95.7791 99.1437 93.9988 99.9261 92.2185C100.424 92.8594 103.482 96.2064 103.482 95.9927C103.553 94.3549 103.553 92.7882 103.482 91.1504Z" fill="#222222"/>
<path opacity="0.5" d="M242.739 74.0597C247.256 74.0597 250.918 70.3932 250.918 65.8704C250.918 61.3476 247.256 57.6812 242.739 57.6812C238.222 57.6812 234.56 61.3476 234.56 65.8704C234.56 70.3932 238.222 74.0597 242.739 74.0597Z" fill="#D9772E"/>
<path d="M242.739 71.2821C245.724 71.2821 248.144 68.859 248.144 65.87C248.144 62.8811 245.724 60.458 242.739 60.458C239.753 60.458 237.333 62.8811 237.333 65.87C237.333 68.859 239.753 71.2821 242.739 71.2821Z" fill="#D9772E"/>
<path opacity="0.5" d="M160.024 198.323C164.541 198.323 168.203 194.656 168.203 190.134C168.203 185.611 164.541 181.944 160.024 181.944C155.507 181.944 151.845 185.611 151.845 190.134C151.845 194.656 155.507 198.323 160.024 198.323Z" fill="#D9772E"/>
<path d="M160.024 195.546C163.009 195.546 165.429 193.123 165.429 190.134C165.429 187.145 163.009 184.722 160.024 184.722C157.039 184.722 154.619 187.145 154.619 190.134C154.619 193.123 157.039 195.546 160.024 195.546Z" fill="#D9772E"/>
<path opacity="0.5" d="M167.919 69.9295C174.243 69.9295 179.369 64.7964 179.369 58.4645C179.369 52.1326 174.243 46.9995 167.919 46.9995C161.595 46.9995 156.468 52.1326 156.468 58.4645C156.468 64.7964 161.595 69.9295 167.919 69.9295Z" fill="#D9772E"/>
<path d="M175.411 59.7537C176.104 55.6031 173.306 51.6756 169.161 50.9812C165.015 50.2869 161.093 53.0887 160.399 57.2392C159.706 61.3897 162.504 65.3173 166.649 66.0116C170.795 66.706 174.717 63.9042 175.411 59.7537Z" fill="#D9772E"/>
<path opacity="0.5" d="M104.122 236.919C110.446 236.919 115.573 231.786 115.573 225.454C115.573 219.122 110.446 213.989 104.122 213.989C97.7985 213.989 92.6719 219.122 92.6719 225.454C92.6719 231.786 97.7985 236.919 104.122 236.919Z" fill="#D9772E"/>
<path d="M104.122 233.074C108.325 233.074 111.732 229.662 111.732 225.454C111.732 221.246 108.325 217.834 104.122 217.834C99.9193 217.834 96.5122 221.246 96.5122 225.454C96.5122 229.662 99.9193 233.074 104.122 233.074Z" fill="#D9772E"/>
<path opacity="0.5" d="M56.5418 161.649C61.0589 161.649 64.7208 157.983 64.7208 153.46C64.7208 148.937 61.0589 145.271 56.5418 145.271C52.0247 145.271 48.3628 148.937 48.3628 153.46C48.3628 157.983 52.0247 161.649 56.5418 161.649Z" fill="#D9772E"/>
<path d="M56.542 158.872C59.5272 158.872 61.9472 156.449 61.9472 153.46C61.9472 150.471 59.5272 148.048 56.542 148.048C53.5567 148.048 51.1367 150.471 51.1367 153.46C51.1367 156.449 53.5567 158.872 56.542 158.872Z" fill="#D9772E"/>
<path opacity="0.5" d="M54.8348 53.4083C59.3519 53.4083 63.0138 49.7419 63.0138 45.2191C63.0138 40.6962 59.3519 37.0298 54.8348 37.0298C50.3176 37.0298 46.6558 40.6962 46.6558 45.2191C46.6558 49.7419 50.3176 53.4083 54.8348 53.4083Z" fill="#D9772E"/>
<path d="M54.8349 50.6312C57.8202 50.6312 60.2402 48.2082 60.2402 45.2192C60.2402 42.2302 57.8202 39.8071 54.8349 39.8071C51.8497 39.8071 49.4297 42.2302 49.4297 45.2192C49.4297 48.2082 51.8497 50.6312 54.8349 50.6312Z" fill="#D9772E"/>
<path opacity="0.5" d="M237.263 183.012C240.837 183.012 243.735 180.111 243.735 176.532C243.735 172.953 240.837 170.052 237.263 170.052C233.688 170.052 230.791 172.953 230.791 176.532C230.791 180.111 233.688 183.012 237.263 183.012Z" fill="#D9772E"/>
<path d="M241.601 176.532C241.601 178.882 239.68 180.876 237.262 180.876C234.844 180.876 232.924 178.954 232.924 176.532C232.924 174.182 234.844 172.188 237.262 172.188C239.68 172.188 241.601 174.111 241.601 176.532Z" fill="#D9772E"/>
<path opacity="0.5" d="M37.0543 73.276C37.0543 75.626 35.134 77.6199 32.7159 77.6199C30.2977 77.6199 28.3774 75.6972 28.3774 73.276C28.3774 70.926 30.2977 68.9321 32.7159 68.9321C35.134 68.9321 37.0543 70.8548 37.0543 73.276Z" fill="#D9772E"/>
<path d="M32.716 76.1246C34.2872 76.1246 35.5608 74.8493 35.5608 73.2762C35.5608 71.703 34.2872 70.4277 32.716 70.4277C31.1448 70.4277 29.8711 71.703 29.8711 73.2762C29.8711 74.8493 31.1448 76.1246 32.716 76.1246Z" fill="#D9772E"/>
<path opacity="0.5" d="M236.267 136.939C236.267 139.36 234.346 141.283 231.928 141.283C229.51 141.283 227.59 139.36 227.59 136.939C227.59 134.518 229.51 132.595 231.928 132.595C234.346 132.666 236.267 134.589 236.267 136.939Z" fill="#D9772E"/>
<path d="M234.845 136.939C234.845 138.505 233.564 139.787 232 139.787C230.435 139.787 229.155 138.505 229.155 136.939C229.155 135.372 230.435 134.09 232 134.09C233.564 134.09 234.845 135.372 234.845 136.939Z" fill="#D9772E"/>
<path opacity="0.5" d="M179.369 147.051C181.765 147.051 183.708 145.106 183.708 142.707C183.708 140.308 181.765 138.363 179.369 138.363C176.973 138.363 175.031 140.308 175.031 142.707C175.031 145.106 176.973 147.051 179.369 147.051Z" fill="#D9772E"/>
<path d="M179.369 145.555C180.94 145.555 182.214 144.28 182.214 142.707C182.214 141.134 180.94 139.858 179.369 139.858C177.798 139.858 176.524 141.134 176.524 142.707C176.524 144.28 177.798 145.555 179.369 145.555Z" fill="#D9772E"/>
<path opacity="0.5" d="M53.9816 196.044C53.9816 198.394 52.0613 200.388 49.6431 200.388C47.225 200.388 45.3047 198.465 45.3047 196.044C45.3047 193.694 47.225 191.7 49.6431 191.7C52.0613 191.7 53.9816 193.694 53.9816 196.044Z" fill="#D9772E"/>
<path d="M52.5589 196.044C52.5589 197.611 51.2787 198.893 49.714 198.893C48.1493 198.893 46.8691 197.611 46.8691 196.044C46.8691 194.478 48.1493 193.196 49.714 193.196C51.2787 193.196 52.5589 194.478 52.5589 196.044Z" fill="#D9772E"/>
<path opacity="0.5" d="M142.03 27.3453C142.03 29.6952 140.11 31.6891 137.692 31.6179C135.345 31.6179 133.354 29.6952 133.425 27.274C133.425 24.9241 135.345 22.9302 137.763 22.9302C140.11 23.0014 142.03 24.9241 142.03 27.3453Z" fill="#D9772E"/>
<path d="M140.537 27.345C140.537 28.9117 139.257 30.1935 137.692 30.1935C136.127 30.1935 134.847 28.9117 134.847 27.345C134.847 25.7784 136.127 24.4966 137.692 24.4966C139.257 24.4966 140.537 25.7784 140.537 27.345Z" fill="#D9772E"/>
<path opacity="0.5" d="M180.863 7.26331C180.863 9.61327 178.943 11.6072 176.524 11.6072C174.177 11.6072 172.186 9.68449 172.186 7.26331C172.186 4.91334 174.106 2.91943 176.524 2.91943C178.943 2.99064 180.863 4.91334 180.863 7.26331Z" fill="#D9772E"/>
<path d="M179.369 7.26348C179.369 8.83012 178.089 10.1119 176.525 10.1119C174.96 10.1119 173.68 8.83012 173.68 7.26348C173.68 5.69684 174.96 4.41504 176.525 4.41504C178.089 4.41504 179.369 5.69684 179.369 7.26348Z" fill="#D9772E"/>
<path d="M215.784 81.1096C215.784 82.249 214.859 83.1035 213.792 83.1035C212.725 83.1035 211.801 82.1777 211.801 81.1096C211.801 79.9702 212.725 79.1157 213.792 79.1157C214.859 79.0445 215.712 79.9702 215.784 81.1096Z" fill="#D9772E"/>
<path d="M78.5898 196.044C78.5898 197.184 77.6652 198.038 76.5983 198.038C75.5315 198.038 74.6069 197.112 74.6069 196.044C74.6069 194.905 75.5315 194.05 76.5983 194.05C77.6652 194.05 78.5898 194.905 78.5898 196.044Z" fill="#D9772E"/>
<path d="M76.5273 27.3449C76.5273 28.4843 75.6027 29.3388 74.5358 29.3388C73.3979 29.3388 72.5444 28.4131 72.5444 27.3449C72.5444 26.2056 73.469 25.351 74.5358 25.351C75.6738 25.2798 76.5273 26.2056 76.5273 27.3449Z" fill="#D9772E"/>
<path d="M49.7143 102.473C49.7143 103.612 48.7897 104.467 47.7229 104.467C46.5849 104.467 45.7314 103.541 45.7314 102.473C45.7314 101.333 46.656 100.479 47.7229 100.479C48.7897 100.408 49.7143 101.333 49.7143 102.473Z" fill="#D9772E"/>
<path d="M265 122.341C265 123.48 264.075 124.335 263.008 124.335C261.942 124.335 261.017 123.409 261.017 122.341C261.017 121.272 261.942 120.347 263.008 120.347C264.075 120.347 265 121.201 265 122.341Z" fill="#D9772E"/>
<path d="M96.0854 132.809C96.0854 133.948 95.1608 134.803 94.094 134.803C92.956 134.803 92.1025 133.877 92.1025 132.809C92.1025 131.669 93.0271 130.815 94.094 130.815C95.1608 130.815 96.0854 131.741 96.0854 132.809Z" fill="#D9772E"/>
<path d="M22.3322 143.348C23.4321 143.348 24.3236 142.455 24.3236 141.354C24.3236 140.253 23.4321 139.36 22.3322 139.36C21.2324 139.36 20.3408 140.253 20.3408 141.354C20.3408 142.455 21.2324 143.348 22.3322 143.348Z" fill="#D9772E"/>
<path d="M217.775 216.197C217.775 217.336 216.85 218.191 215.783 218.191C214.717 218.191 213.792 217.265 213.792 216.197C213.792 215.129 214.717 214.203 215.783 214.203C216.85 214.132 217.775 215.058 217.775 216.197Z" fill="#D9772E"/>
<path d="M144.733 166.705C144.733 167.845 143.808 168.699 142.741 168.699C141.675 168.699 140.75 167.773 140.75 166.705C140.75 165.566 141.675 164.711 142.741 164.711C143.879 164.64 144.733 165.566 144.733 166.705Z" fill="#D9772E"/>
<path d="M140.679 241.833C140.679 242.972 139.755 243.827 138.688 243.827C137.621 243.827 136.696 242.901 136.696 241.833C136.696 240.693 137.621 239.839 138.688 239.839C139.755 239.768 140.679 240.693 140.679 241.833Z" fill="#D9772E"/>
<path d="M121.192 63.8762C121.192 65.0155 120.267 65.8701 119.2 65.8701C118.134 65.8701 117.209 64.9443 117.209 63.8762C117.209 62.7368 118.134 61.8823 119.2 61.8823C120.267 61.8111 121.192 62.7368 121.192 63.8762Z" fill="#D9772E"/>
<path d="M121.831 1.99391C121.831 3.13329 120.907 3.98782 119.84 3.98782C118.702 3.98782 117.849 3.06208 117.849 1.99391C117.849 0.854533 118.773 0 119.84 0C120.907 0 121.831 0.925744 121.831 1.99391Z" fill="#D9772E"/>
<path d="M214.788 33.6829C214.788 34.8223 213.934 35.748 212.796 35.748C211.658 35.748 210.734 34.8935 210.734 33.7541C210.734 32.6147 211.587 31.689 212.725 31.689C212.725 31.689 212.725 31.689 212.796 31.689C213.863 31.689 214.717 32.5435 214.788 33.6829Z" fill="#D9772E"/>
<path d="M104.122 225.526L76.5269 196.044L22.332 141.354V141.283L32.7158 73.1339L54.7636 45.148L74.5355 27.274L119.911 1.92285L119.982 1.99406L137.905 27.274L167.99 58.3932L212.796 33.5406L212.867 33.6118L242.81 65.8704L263.079 122.341V122.412L237.404 176.604H237.333L160.095 190.276L104.122 225.526ZM22.4743 141.354L76.6691 195.973L104.193 225.312L160.095 190.062L237.262 176.39L262.937 122.27L242.668 65.8704L212.725 33.7542L167.918 58.6069L167.847 58.5356L137.621 27.4164L119.769 2.13648L74.6066 27.4164L54.9058 45.2904L32.7869 73.2763L22.4743 141.354Z" fill="#D9772E"/>
<path d="M215.784 216.268H215.713L160.024 190.205L142.742 166.705L94.1655 132.88L76.5984 196.186L76.5273 195.973L56.471 153.317L47.6519 102.33L74.5359 27.1313H74.607L131.078 40.163L137.692 27.2026H137.763L212.868 33.5403V33.6116L213.366 59.1051L242.739 65.8702V66.0126L213.508 63.0929L213.864 81.1093L179.654 142.564L232.142 136.796V136.868L237.405 176.461L215.784 216.268ZM160.095 190.062L215.713 216.054L237.192 176.532L231.929 137.081L179.298 142.849L179.37 142.707L213.65 81.1093L213.295 63.0929L167.919 58.6066L118.987 64.0187L119.058 63.8763L131.007 40.4478L74.607 27.4874L47.7941 102.473L56.6132 153.46L76.5273 195.83L94.0233 132.737L94.0944 132.809L142.742 166.634L160.095 190.062ZM213.437 62.8793L241.317 65.6565L213.366 59.2475L213.437 62.8793ZM131.149 40.3766L119.272 63.7338L167.919 58.393L213.223 62.8793L213.152 59.1763L131.149 40.3766ZM131.22 40.2342L213.152 59.0339L212.655 33.754L137.834 27.4162L131.22 40.2342Z" fill="#D9772E"/>
<path d="M212.654 33.7541L176.524 7.3348L176.596 7.19238L212.797 33.6117L212.654 33.7541Z" fill="#D9772E"/>
<path d="M138.687 241.904L104.122 225.525L103.482 225.597L103.909 225.454L49.5717 196.115L22.2609 141.425L21.9053 141.283H22.2609L47.5091 102.473L32.5735 73.2763L32.6447 73.205L79.0872 52.8387L74.3221 27.0603L74.5354 27.2027L96.5121 45.1479L119.342 35.1783L119.698 1.85156H119.769L176.809 7.12118L176.524 7.2636L137.692 27.3451L119.484 35.3208L119.2 64.0188L119.058 63.8764L96.5121 45.3615L79.3717 52.8387L94.1651 132.809H94.0939L22.7587 141.425L56.5416 153.389L142.741 166.634L179.44 142.636L179.511 142.707L202.555 189.208L237.262 176.461L239.396 133.592L232.07 137.081L231.999 136.939L239.396 133.45L240.818 103.897L213.65 81.1095L213.792 81.0383L242.881 65.7279L241.032 103.755L263.222 122.341L263.079 122.412L239.609 133.521L237.476 176.604H237.404L202.697 189.35L215.997 216.268H215.855L138.687 241.904ZM104.478 225.525L138.687 241.762L215.001 216.41L104.478 225.525ZM49.785 195.973L104.122 225.312L202.341 189.208L179.369 142.778L142.741 166.705H142.67L56.5416 153.531L22.5454 141.496L49.785 195.973ZM202.413 189.421L104.762 225.312L215.641 216.126L202.413 189.421ZM32.858 73.3475L47.7936 102.544V102.615L22.5454 141.283L94.0228 132.809L79.2295 53.0523L32.858 73.3475ZM240.961 103.968L239.538 133.307L262.866 122.269L240.961 103.968ZM213.934 81.1095L240.818 103.612L242.667 66.0127L213.934 81.1095ZM96.7254 45.3615L119.058 63.6628L119.342 35.4632L96.7254 45.3615ZM74.6777 27.5588L79.3717 52.7675L96.3698 45.2903L74.6777 27.5588ZM119.84 2.13641L119.484 35.1783L137.621 27.2027L176.169 7.33481L119.84 2.13641Z" fill="#D9772E"/>
<path d="M168.002 58.4083L167.878 58.4775L180.813 81.7494L180.938 81.6801L168.002 58.4083Z" fill="#D9772E"/>
<path d="M237.262 176.675L221.758 165.566L221.829 165.423L237.334 176.532L237.262 176.675Z" fill="#D9772E"/>
<path d="M197.434 88.0171C197.434 93.1443 194.376 97.8442 189.611 99.8381L184.632 88.0171H197.434Z" fill="#D9772E"/>
<path d="M182.925 87.1623L187.904 98.9834C187.548 99.1258 187.122 99.2682 186.695 99.4106C179.938 101.547 172.755 97.7728 170.693 91.0077C170.337 89.7972 170.124 88.4441 170.124 87.1623C170.124 85.8805 170.337 84.5987 170.693 83.3169C171.973 79.2579 175.102 76.1246 179.156 74.914C185.913 72.7777 193.096 76.5519 195.23 83.3169C195.585 84.5275 195.799 85.8093 195.799 87.1623H182.925Z" fill="#D9772E"/>
<path d="M182.926 87.1623L187.904 98.9834C187.548 99.1258 187.122 99.2682 186.695 99.4107C184.206 100.194 181.574 100.194 179.085 99.4107C172.328 97.2743 168.559 90.082 170.693 83.3169C172.826 76.5519 180.01 72.7777 186.766 74.914C190.749 76.1958 193.878 79.3291 195.158 83.3169C195.514 84.5275 195.727 85.8093 195.727 87.1623H182.926Z" fill="#C4C4C4"/>
<path d="M182.925 87.1624L174.604 96.8471C169.27 92.2184 168.63 84.1004 173.253 78.7595C177.876 73.4187 185.984 72.7778 191.318 77.4065C194.163 79.8277 195.727 83.3883 195.727 87.0912H182.925V87.1624Z" fill="#222222"/>
<path d="M203.906 153.175H201.132V167.417H203.906V153.175Z" fill="#D9772E"/>
<path d="M208.671 155.525H205.897V167.417H208.671V155.525Z" fill="#D9772E"/>
<path d="M213.508 159.869H210.734V167.417H213.508V159.869Z" fill="#D9772E"/>
<path d="M218.344 155.382H215.57V167.488H218.344V155.382Z" fill="#D9772E"/>
<path d="M223.18 157.305H220.407V167.417H223.18V157.305Z" fill="#D9772E"/>
<path d="M227.946 151.181H225.172V167.417H227.946V151.181Z" fill="#D9772E"/>
<path d="M199.497 150.184V154.457V158.729V167.346L199.426 167.275C206.253 167.275 213.01 167.275 219.838 167.275H225.527L230.577 167.346H225.527H219.838C213.01 167.346 206.253 167.346 199.426 167.346H199.354V158.729V154.457L199.497 150.184Z" fill="#A6A6A6"/>
<path d="M198.856 151.181C199.283 151.11 199.71 151.11 200.066 151.181C199.71 151.323 199.283 151.323 198.856 151.181Z" fill="#A6A6A6"/>
<path d="M198.856 152.89C199.07 152.819 199.283 152.819 199.497 152.819C199.71 152.819 199.923 152.819 200.137 152.89C199.71 153.032 199.283 153.032 198.856 152.89Z" fill="#A6A6A6"/>
<path d="M198.856 154.599C199.283 154.528 199.71 154.528 200.066 154.599C199.71 154.742 199.283 154.742 198.856 154.599Z" fill="#A6A6A6"/>
<path d="M198.856 156.308C199.283 156.166 199.71 156.166 200.066 156.308C199.71 156.451 199.283 156.451 198.856 156.308Z" fill="#A6A6A6"/>
<path d="M198.856 158.017C199.283 157.946 199.71 157.946 200.066 158.017C199.71 158.16 199.283 158.16 198.856 158.017Z" fill="#A6A6A6"/>
<path d="M198.856 159.726C199.283 159.655 199.71 159.655 200.066 159.726C199.71 159.869 199.283 159.869 198.856 159.726Z" fill="#A6A6A6"/>
<path d="M198.856 161.435C199.07 161.364 199.283 161.364 199.497 161.364C199.71 161.364 199.923 161.364 200.137 161.435C199.71 161.578 199.283 161.578 198.856 161.435Z" fill="#A6A6A6"/>
<path d="M198.856 163.145C199.283 163.074 199.71 163.074 200.066 163.145C199.71 163.287 199.283 163.287 198.856 163.145Z" fill="#A6A6A6"/>
<path d="M198.856 164.853C199.283 164.711 199.71 164.711 200.066 164.853C199.71 164.996 199.283 164.996 198.856 164.853Z" fill="#A6A6A6"/>
<path d="M76.1717 69.7158H73.1846V89.014H76.1717V69.7158Z" fill="#EBEBEB"/>
<path d="M76.1717 74.3442H73.1846V89.0137H76.1717V74.3442Z" fill="#D9772E"/>
<path d="M71.6907 69.7158H68.7036V89.014H71.6907V69.7158Z" fill="#EBEBEB"/>
<path d="M71.6907 76.2671H68.7036V89.0139H71.6907V76.2671Z" fill="#222222"/>
<path d="M67.2103 69.7158H64.2231V89.014H67.2103V69.7158Z" fill="#EBEBEB"/>
<path d="M67.2103 83.1035H64.2231V88.9428H67.2103V83.1035Z" fill="#D9772E"/>
<path d="M62.8006 69.7158H59.8135V89.014H62.8006V69.7158Z" fill="#EBEBEB"/>
<path d="M62.8006 72.8491H59.8135V88.9428H62.8006V72.8491Z" fill="#222222"/>
<path d="M58.3201 69.7158H55.333V89.014H58.3201V69.7158Z" fill="#EBEBEB"/>
<path d="M58.3201 71.5669H55.333V88.9424H58.3201V71.5669Z" fill="#D9772E"/>
<path d="M53.8392 69.7158H50.8521V89.014H53.8392V69.7158Z" fill="#EBEBEB"/>
<path d="M53.8392 77.9761H50.8521V89.0138H53.8392V77.9761Z" fill="#222222"/>
<path d="M48.8605 69.6445L48.9316 74.4869V79.3292V89.0139L48.8605 88.8715H56.1861H63.5116L70.8371 88.9427L78.1627 89.0139L70.8371 89.0851H63.5116H56.1861H48.8605H48.7183V89.0139L48.7894 79.3292V74.4869L48.8605 69.6445Z" fill="#EBEBEB"/>
<path d="M48.4341 69.6445C48.5763 69.5732 48.7186 69.5732 48.8608 69.5732C49.0031 69.5732 49.1453 69.5732 49.2876 69.6445C49.1453 69.7157 49.0031 69.7157 48.8608 69.7157C48.7186 69.7157 48.5763 69.7157 48.4341 69.6445Z" fill="#EBEBEB"/>
<path d="M48.4341 71.5673C48.5763 71.5673 48.7186 71.4961 48.9319 71.4961C49.0742 71.4961 49.2164 71.4961 49.3587 71.5673C49.2164 71.6385 49.0742 71.6385 48.9319 71.6385C48.7186 71.6385 48.5763 71.6385 48.4341 71.5673Z" fill="#EBEBEB"/>
<path d="M48.4341 73.4897C48.5763 73.4185 48.7186 73.4185 48.8608 73.4185C49.0031 73.4185 49.1453 73.4185 49.2876 73.4897C49.1453 73.5609 49.0031 73.5609 48.8608 73.5609C48.7186 73.5609 48.5763 73.5609 48.4341 73.4897Z" fill="#EBEBEB"/>
<path d="M48.4341 75.4125C48.5763 75.3413 48.7186 75.3413 48.8608 75.3413C49.0031 75.3413 49.1453 75.3413 49.2876 75.4125C49.1453 75.4837 49.0031 75.4837 48.8608 75.4837C48.7186 75.4837 48.5763 75.4837 48.4341 75.4125Z" fill="#EBEBEB"/>
<path d="M48.4341 77.3354C48.5763 77.2642 48.7186 77.2642 48.9319 77.2642C49.0742 77.2642 49.2164 77.2642 49.3587 77.3354C49.2164 77.4066 49.0742 77.4066 48.9319 77.4066C48.7186 77.4066 48.5763 77.3354 48.4341 77.3354Z" fill="#EBEBEB"/>
<path d="M48.4341 79.2577C48.5763 79.1865 48.7186 79.1865 48.8608 79.1865C49.0031 79.1865 49.1453 79.1865 49.2876 79.2577C49.1453 79.329 49.0031 79.3289 48.8608 79.3289C48.7186 79.3289 48.5763 79.2577 48.4341 79.2577Z" fill="#EBEBEB"/>
<path d="M48.4341 81.1806C48.5763 81.1094 48.7186 81.1094 48.8608 81.1094C49.0031 81.1094 49.1453 81.1094 49.2876 81.1806C49.1453 81.2518 49.0031 81.2518 48.8608 81.2518C48.7186 81.2518 48.5763 81.1806 48.4341 81.1806Z" fill="#EBEBEB"/>
<path d="M48.4341 83.1034C48.5763 83.0322 48.7186 83.0322 48.8608 83.0322C49.0031 83.0322 49.1453 83.0322 49.2876 83.1034C49.1453 83.1746 49.0031 83.1747 48.8608 83.1747C48.7186 83.1034 48.5763 83.1034 48.4341 83.1034Z" fill="#EBEBEB"/>
<path d="M48.4341 85.0258C48.5763 84.9546 48.7186 84.9546 48.8608 84.9546C49.0031 84.9546 49.1453 84.9546 49.2876 85.0258C49.1453 85.097 49.0031 85.097 48.8608 85.097C48.7186 85.0258 48.5763 85.0258 48.4341 85.0258Z" fill="#EBEBEB"/>
<path d="M48.4341 86.8774C48.5763 86.8062 48.7186 86.8062 48.8608 86.8062C49.0031 86.8062 49.1453 86.8062 49.2876 86.8774C49.1453 86.9486 49.0031 86.9486 48.8608 86.9486C48.7186 86.9486 48.5763 86.9486 48.4341 86.8774Z" fill="#EBEBEB"/>
<path d="M129.015 33.4692H109.172V43.7236H129.015V33.4692Z" fill="#D9772E"/>
<path d="M126.739 35.8193H111.448V36.2466H126.739V35.8193Z" fill="white"/>
<path d="M126.739 37.5283H111.448V37.9556H126.739V37.5283Z" fill="white"/>
<path d="M126.739 39.2373H111.448V39.6646H126.739V39.2373Z" fill="white"/>
<path d="M126.739 40.9463H111.448V41.3736H126.739V40.9463Z" fill="white"/>
<path d="M168.203 218.19H148.36V228.516H168.203V218.19Z" fill="#D9772E"/>
<path d="M165.927 220.541H150.636V220.968H165.927V220.541Z" fill="white"/>
<path d="M165.927 222.25H150.636V222.677H165.927V222.25Z" fill="white"/>
<path d="M165.927 223.959H150.636V224.386H165.927V223.959Z" fill="white"/>
<path d="M165.927 225.668H150.636V226.095H165.927V225.668Z" fill="white"/>
</svg>
