<svg width="228" height="228" viewBox="0 0 228 228" fill="none" xmlns="http://www.w3.org/2000/svg">
<g clip-path="url(#clip0_806_1529)">
<path d="M188.657 110.916C188.657 110.916 188.124 111.247 187.288 111.664C187.288 111.365 187.25 111.066 187.224 110.766C187.165 109.863 187.09 108.954 187.005 108.056C187.005 108.976 187.005 109.906 187.069 110.825C187.069 111.141 187.101 111.451 187.117 111.766C186.867 111.894 186.584 112.023 186.291 112.151V111.75C186.291 111.146 186.254 110.542 186.238 109.938C186.201 108.751 186.121 107.564 186.078 106.372C186.073 106.367 186.066 106.365 186.059 106.365C186.052 106.365 186.046 106.367 186.041 106.372V106.372V109.938C186.041 110.526 186.041 111.108 186.073 111.691V112.226C185.652 112.407 185.204 112.584 184.741 112.734V111.066C184.741 110.125 184.677 109.195 184.607 108.254H184.565V112.819C183.689 113.117 182.776 113.286 181.852 113.322H181.799C180.913 113.288 180.036 113.13 179.193 112.851C179.193 111.456 179.14 110.061 179.135 108.671C179.128 108.666 179.119 108.663 179.111 108.663C179.102 108.663 179.094 108.666 179.087 108.671C179.087 110.045 179.002 111.413 179.007 112.787C178.336 112.568 177.678 112.311 177.035 112.017C177.035 111.632 177.035 111.269 177.009 110.895C177.009 109.826 176.955 108.756 176.934 107.687H176.902C176.902 108.756 176.849 109.826 176.822 110.895C176.822 111.231 176.822 111.568 176.796 111.905L176.332 111.686C176.268 109.649 176.161 107.612 176.183 105.576H176.087C176.06 107.57 175.98 109.564 176.028 111.563C175.314 111.194 174.877 110.916 174.877 110.916C174.877 110.916 173.375 91.4579 176.284 87.6304C178.682 84.4711 181.756 85.0164 181.756 85.0164H181.799C181.799 85.0164 184.772 84.4818 187.165 87.6304C190.053 91.4365 188.657 110.916 188.657 110.916Z" fill="#222222"/>
<path d="M213.419 180.275C213.419 180.275 221.694 194.949 221.694 194.965C223.027 197.921 224.14 200.541 224.588 201.952C224.731 202.271 224.796 202.619 224.78 202.968V202.994C224.172 203.989 200.891 215.332 199.948 215.455C199.005 215.578 198.59 212.889 199.138 211.713C199.687 210.537 206.668 202.203 206.668 202.203L198.547 187.497L213.419 180.275Z" fill="#EB9481"/>
<path d="M200.321 215.391C201.265 215.268 224.172 204.01 224.78 203.016V202.989C224.791 202.641 224.726 202.294 224.588 201.974V201.974C224.14 200.568 223.027 197.948 221.7 194.987C221.7 194.987 220.304 192.416 219.75 191.528L204.947 199.21L206.668 202.268C206.668 202.268 200.066 210.505 199.533 211.665C199 212.825 199.378 215.52 200.321 215.391Z" fill="#F2F2F2"/>
<path d="M199.895 215.075C200.849 214.931 224.028 202.946 224.631 201.925C224.865 201.54 223.32 198.055 221.332 193.907L221.268 193.778L206.22 201.342L206.359 201.594C206.359 201.594 199.533 210.141 199 211.333C198.467 212.525 198.947 215.22 199.895 215.075Z" fill="#D9772E"/>
<path d="M199.698 214.039C203.556 211.9 219.323 203.748 223.298 201.952C223.33 201.952 223.341 201.952 223.298 201.952C219.515 204.139 203.684 212.178 199.714 214.081C199.645 214.14 199.613 214.071 199.698 214.039Z" fill="white"/>
<path d="M205.128 202.267C206.518 201.198 208.517 200.45 210.259 200.941C210.328 200.941 210.296 201.059 210.259 201.064C208.546 201.35 206.869 201.817 205.255 202.46C205.228 202.47 205.197 202.469 205.17 202.457C205.143 202.445 205.122 202.423 205.112 202.396C205.1 202.375 205.095 202.352 205.098 202.329C205.101 202.305 205.111 202.284 205.128 202.267V202.267Z" fill="#222222"/>
<path d="M204.361 203.513C205.751 202.444 207.755 201.696 209.492 202.188C209.561 202.188 209.529 202.305 209.492 202.311C207.779 202.589 206.102 203.054 204.489 203.695C204.459 203.7 204.429 203.693 204.404 203.676C204.379 203.659 204.362 203.634 204.355 203.604C204.35 203.589 204.348 203.574 204.349 203.558C204.35 203.543 204.354 203.527 204.361 203.513V203.513Z" fill="#222222"/>
<path d="M203.593 204.764C204.984 203.695 206.987 202.947 208.725 203.439C208.794 203.439 208.767 203.551 208.725 203.562C207.01 203.846 205.331 204.314 203.716 204.957C203.688 204.966 203.658 204.964 203.631 204.952C203.605 204.941 203.584 204.919 203.572 204.893C203.562 204.871 203.559 204.848 203.563 204.825C203.567 204.802 203.577 204.781 203.593 204.764V204.764Z" fill="#222222"/>
<path d="M218.775 198.349C220.027 196.639 222.68 198.584 221.439 200.295C220.197 202.006 217.528 200.054 218.775 198.349Z" fill="#F2F2F2"/>
<path opacity="0.1" d="M205.341 202.86L203.673 213.316C202.445 213.971 201.184 214.561 199.895 215.086C198.952 215.236 198.467 212.531 198.995 211.344C199.415 210.435 203.412 205.298 205.341 202.86Z" fill="black"/>
<path d="M199.117 214.423C198.781 214.808 199.591 216.15 199.948 216.107C200.305 216.064 225.526 202.887 225.915 202.567C226.304 202.246 225.339 200.787 224.796 200.963C224.252 201.139 199.117 214.423 199.117 214.423Z" fill="#222222"/>
<path d="M219.782 190.132L203.103 199.081C203.103 199.081 182.034 168.985 181.629 161.073C181.048 150.152 190.346 115.491 190.346 115.491L205.171 115.39C205.171 115.39 199.144 151.05 199.634 157.134C199.89 160.272 219.782 190.132 219.782 190.132Z" fill="#222222"/>
<path d="M201.664 195.622C202.522 195.008 210.43 190.41 216.451 187.476C216.488 187.476 216.515 187.508 216.451 187.534C214.639 188.726 202.836 195.221 201.691 195.676C201.664 195.676 201.611 195.622 201.664 195.622Z" fill="black"/>
<path d="M197.577 149.484C198.266 144.274 199.032 139.069 199.874 133.87C200.726 128.679 201.659 123.44 202.741 118.266C202.879 117.635 203.012 117.004 203.151 116.373C203.156 116.353 203.169 116.335 203.187 116.324C203.205 116.313 203.226 116.31 203.247 116.315C203.257 116.316 203.267 116.319 203.276 116.325C203.285 116.33 203.292 116.337 203.298 116.346C203.303 116.355 203.307 116.365 203.308 116.375C203.31 116.385 203.309 116.396 203.305 116.406C202.389 121.532 201.451 126.664 200.641 131.812C199.831 136.96 199.016 142.113 198.318 147.282C198.142 148.56 197.971 149.842 197.785 151.12C197.577 152.44 197.449 153.772 197.401 155.108C197.379 156.384 197.594 157.653 198.035 158.85C198.506 160.016 199.078 161.137 199.746 162.202C202.41 166.756 214.442 186.653 214.751 187.23C214.751 187.267 214.725 187.305 214.698 187.273C211.815 182.782 202.874 168.445 200.14 163.832C198.909 161.742 197.508 159.63 197.103 157.193C196.709 154.648 197.241 151.997 197.577 149.484Z" fill="black"/>
<path d="M200.742 190.133C200.742 190.133 200.908 207.1 200.908 207.116C200.822 210.361 200.684 213.205 200.476 214.675C200.466 215.022 200.374 215.363 200.21 215.669C199.224 216.294 173.348 216.337 172.447 216.054C171.547 215.77 172.335 213.146 173.332 212.312C174.328 211.478 184.245 207.046 184.245 207.046V190.138L200.742 190.133Z" fill="#EB9481"/>
<path d="M200.876 203.631C200.876 203.631 200.908 207.089 200.908 207.116C200.822 210.361 200.684 213.205 200.476 214.675C200.427 215.016 200.338 215.35 200.21 215.669C199.224 216.295 173.348 216.337 172.447 216.054C171.547 215.771 172.335 213.146 173.332 212.312C174.328 211.478 184.245 207.047 184.245 207.047V203.508L200.876 203.631Z" fill="#F2F2F2"/>
<path d="M172.41 216.038C173.332 216.332 199.41 215.878 200.391 215.22C200.774 214.985 200.924 211.163 200.977 206.55V206.405L184.149 206.512V206.801C184.149 206.801 174.248 211.457 173.241 212.28C172.234 213.103 171.493 215.755 172.41 216.038Z" fill="#D9772E"/>
<path d="M172.687 215.022C177.083 214.835 194.828 214.487 199.186 214.637C199.224 214.637 199.224 214.637 199.186 214.637C194.833 214.92 177.088 215.107 172.687 215.054C172.602 215.091 172.602 215.027 172.687 215.022Z" fill="white"/>
<path d="M182.748 206.902C184.474 206.544 186.579 206.774 187.932 207.971C187.991 208.02 187.932 208.094 187.869 208.078C186.205 207.571 184.492 207.245 182.758 207.105C182.744 207.103 182.729 207.099 182.717 207.091C182.704 207.083 182.692 207.073 182.684 207.061C182.675 207.05 182.668 207.036 182.664 207.021C182.661 207.007 182.66 206.992 182.662 206.977C182.669 206.958 182.68 206.941 182.695 206.928C182.71 206.915 182.728 206.906 182.748 206.902V206.902Z" fill="#222222"/>
<path d="M181.511 207.651C183.232 207.298 185.342 207.523 186.701 208.72C186.749 208.763 186.701 208.838 186.627 208.822C184.965 208.314 183.253 207.988 181.522 207.849C181.493 207.845 181.467 207.83 181.449 207.807C181.431 207.784 181.423 207.755 181.426 207.726C181.432 207.707 181.443 207.689 181.458 207.676C181.473 207.663 181.491 207.654 181.511 207.651V207.651Z" fill="#222222"/>
<path d="M180.264 208.425C181.991 208.073 184.09 208.302 185.454 209.495C185.508 209.537 185.454 209.617 185.38 209.596C183.717 209.093 182.006 208.767 180.275 208.623C180.26 208.622 180.246 208.618 180.233 208.611C180.221 208.604 180.209 208.594 180.2 208.583C180.191 208.571 180.185 208.558 180.181 208.544C180.178 208.529 180.177 208.515 180.179 208.5C180.185 208.481 180.196 208.464 180.211 208.451C180.226 208.437 180.244 208.429 180.264 208.425Z" fill="#222222"/>
<path d="M171.994 215.107C171.531 215.3 171.664 216.871 171.994 216.989C172.325 217.107 200.769 216.481 201.254 216.369C201.739 216.257 201.531 214.509 200.966 214.444C200.401 214.38 171.994 215.107 171.994 215.107Z" fill="#222222"/>
<path d="M196.735 209.409C198.606 208.426 200.13 211.334 198.265 212.333C196.4 213.333 194.844 210.393 196.735 209.409Z" fill="#F2F2F2"/>
<path d="M190.346 115.433C190.346 115.433 194.854 130.4 195.36 130.636C195.867 130.871 183.589 151.692 182.859 161.352C182.39 167.531 183.328 202.513 183.328 202.513H201.366C201.366 202.513 200.497 171.086 200.065 161.1C199.906 157.241 212.449 138.007 212.609 126.033C212.652 122.259 209.945 115.342 209.945 115.342L190.346 115.433Z" fill="#222222"/>
<path d="M199.964 160.834C199.964 160.673 200.087 160.62 200.103 160.786C200.508 166.163 200.604 171.541 200.87 176.924C201.137 182.307 200.982 183.601 201.217 188.984C201.355 192.031 201.217 195.089 201.297 198.136C201.289 198.141 201.281 198.143 201.273 198.143C201.264 198.143 201.256 198.141 201.249 198.136C201.244 198.138 201.24 198.139 201.235 198.139C201.231 198.139 201.226 198.138 201.222 198.136C200.652 192.785 199.97 163.886 199.964 160.834Z" fill="black"/>
<path d="M182.859 161.566C182.886 160.236 183.014 158.91 183.243 157.6C183.492 156.319 183.865 155.066 184.356 153.858C185.353 151.34 186.531 148.865 187.66 146.417C188.79 143.968 189.957 141.424 191.161 138.965C191.836 137.582 192.518 136.196 193.207 134.806C193.9 133.411 194.646 132.037 195.371 130.652C195.38 130.645 195.391 130.642 195.403 130.642C195.414 130.642 195.426 130.645 195.435 130.652C195.443 130.661 195.447 130.673 195.447 130.684C195.447 130.696 195.443 130.708 195.435 130.716C194.289 133.208 193.138 135.715 191.987 138.2C190.836 140.686 189.69 143.199 188.561 145.684C187.431 148.17 186.323 150.602 185.268 153.088C184.745 154.273 184.316 155.497 183.983 156.75C183.683 158.045 183.505 159.366 183.451 160.695C183.275 163.769 183.19 166.885 182.886 169.969C182.886 170.007 182.822 170.002 182.816 169.969C182.731 167.168 182.774 164.357 182.859 161.566Z" fill="black"/>
<path d="M184.613 198.921C185.678 198.782 193.671 198.505 200.343 198.793C200.351 198.793 200.359 198.797 200.365 198.803C200.371 198.809 200.375 198.817 200.375 198.825C200.375 198.834 200.372 198.843 200.366 198.85C200.36 198.857 200.352 198.861 200.343 198.863C198.163 199.055 185.849 199.135 184.639 198.996C184.581 198.996 184.565 198.927 184.613 198.921Z" fill="black"/>
<path d="M192.866 129.823C194.799 130.31 196.686 130.966 198.504 131.785C198.519 131.793 198.53 131.806 198.535 131.822C198.54 131.838 198.538 131.856 198.531 131.871C198.525 131.882 198.516 131.892 198.504 131.898C198.493 131.903 198.479 131.905 198.467 131.903C196.575 131.304 194.635 130.748 192.792 130.048C192.777 130.043 192.763 130.035 192.752 130.025C192.74 130.015 192.73 130.003 192.723 129.989C192.716 129.975 192.712 129.96 192.711 129.944C192.71 129.928 192.712 129.913 192.717 129.898C192.728 129.869 192.749 129.845 192.777 129.831C192.805 129.817 192.837 129.815 192.866 129.823Z" fill="black"/>
<path d="M191.044 117.416C191.044 117.352 191.151 117.325 191.161 117.416C191.364 119.44 191.668 121.452 192.072 123.446C192.248 124.376 193.532 129.476 195.11 128.93C195.376 128.839 195.493 128.545 195.493 128.145C195.43 127.609 195.301 127.083 195.11 126.578C194.822 125.509 194.577 124.44 194.348 123.371C193.947 121.347 193.757 119.287 193.783 117.223C193.784 117.21 193.79 117.197 193.8 117.187C193.81 117.177 193.822 117.171 193.836 117.17C193.843 117.17 193.85 117.171 193.857 117.174C193.863 117.177 193.869 117.181 193.874 117.186C193.879 117.191 193.883 117.196 193.885 117.203C193.888 117.209 193.889 117.216 193.889 117.223C194.137 120.05 194.598 122.854 195.27 125.611C195.611 126.942 196.495 128.898 195.11 129.251C193.724 129.604 192.445 126.306 192.158 125.408C191.444 122.803 191.07 120.117 191.044 117.416V117.416Z" fill="black"/>
<path d="M195.099 129.075C195.28 129.409 195.438 129.756 195.573 130.112C195.705 130.388 195.783 130.688 195.802 130.994C195.802 131.002 195.801 131.01 195.798 131.017C195.794 131.025 195.789 131.032 195.783 131.037C195.777 131.043 195.77 131.047 195.763 131.05C195.755 131.052 195.747 131.053 195.738 131.052C195.725 131.057 195.71 131.057 195.696 131.052C195.499 130.803 195.341 130.526 195.227 130.229C195.072 129.908 194.907 129.593 194.763 129.272C194.752 129.251 194.746 129.228 194.744 129.204C194.742 129.18 194.745 129.155 194.752 129.133C194.76 129.11 194.771 129.089 194.787 129.07C194.803 129.052 194.822 129.037 194.843 129.026C194.884 128.999 194.933 128.989 194.981 128.998C195.029 129.007 195.071 129.035 195.099 129.075V129.075Z" fill="black"/>
<path d="M198.115 166.153C198.025 163.576 197.731 160.882 198.579 158.396C199.042 157.183 199.592 156.006 200.225 154.873C200.849 153.665 201.462 152.446 202.069 151.228C204.478 146.342 206.748 141.381 208.778 136.324C209.825 133.911 210.564 131.375 210.978 128.776C211.29 126.031 211.109 123.252 210.446 120.57C210.296 119.897 210.131 119.234 209.95 118.571C209.95 118.523 210.009 118.496 210.025 118.571C210.877 121.105 211.352 123.751 211.437 126.424C211.414 128.979 210.953 131.51 210.073 133.908C209.209 136.431 208.128 138.901 207.062 141.327C205.964 143.851 204.82 146.345 203.63 148.811C202.453 151.281 201.195 153.708 199.948 156.146C199.305 157.301 198.838 158.546 198.563 159.839C198.372 161.181 198.322 162.539 198.414 163.891C198.627 169.585 199.117 188.524 199.181 194.207C199.181 194.923 199.181 195.645 199.208 196.345C199.208 196.358 199.202 196.37 199.193 196.379C199.184 196.388 199.172 196.393 199.16 196.393C199.153 196.394 199.146 196.393 199.14 196.391C199.133 196.389 199.127 196.385 199.122 196.381C199.117 196.376 199.113 196.371 199.11 196.365C199.108 196.358 199.106 196.352 199.106 196.345C198.781 190.727 198.323 171.83 198.115 166.153Z" fill="black"/>
<path d="M202.165 119.116C202.165 119.079 202.224 119.089 202.234 119.116C202.442 120.688 202.565 122.323 203.3 123.729C204.029 124.975 205.156 125.937 206.497 126.461C207.265 126.785 208.044 127.074 208.837 127.327C208.843 127.329 208.848 127.333 208.853 127.337C208.857 127.342 208.861 127.347 208.864 127.353C208.866 127.359 208.867 127.366 208.867 127.372C208.867 127.379 208.866 127.385 208.863 127.391C208.86 127.4 208.854 127.407 208.846 127.413C208.839 127.418 208.83 127.422 208.821 127.423C207.306 127.191 205.847 126.682 204.515 125.921C203.862 125.474 203.315 124.888 202.913 124.206C202.51 123.523 202.262 122.76 202.187 121.971C202.081 121.022 202.074 120.066 202.165 119.116Z" fill="black"/>
<path d="M189.147 104.015C189.467 111.819 187.106 123.419 184.399 124.863C183.11 125.558 180.952 127.081 178.474 126.466C173.06 125.141 166.602 121.121 164.086 117.881C163.202 116.727 168.051 110.152 169.495 110.713C172.889 112.049 177.856 115.492 178.218 115.278C179.561 114.444 182.651 107.03 184.794 101.828C187.394 95.5045 189.014 100.898 189.147 104.015Z" fill="#EB9481"/>
<path d="M168.44 121.152C167.337 120.987 161.379 120.131 160.074 119.479C158.768 118.827 155.129 116.683 155.529 115.636C155.928 114.588 157.037 115.101 157.037 115.101C157.037 115.101 155.646 113.947 156.136 112.925C156.626 111.904 158.337 112.803 158.337 112.803C158.337 112.803 156.994 111.514 157.569 110.525C158.145 109.536 159.701 110.734 159.701 110.734C159.701 110.734 158.422 109.617 159.232 108.996C160.202 108.253 162.328 110.6 163.825 111.194C164.166 111.333 170.923 113.503 170.923 113.503L168.44 121.152Z" fill="#EB9481"/>
<path d="M159.568 110.649C161.135 112.354 162.115 112.83 164.316 113.429C164.364 113.429 164.353 113.504 164.316 113.498C162.105 113.113 160.788 112.691 159.488 110.724C159.403 110.628 159.478 110.569 159.568 110.649Z" fill="#222222"/>
<path d="M158.214 112.679C159.999 114.283 161.06 114.818 163.319 115.625C163.351 115.625 163.319 115.694 163.319 115.684C161.023 115.09 159.733 114.647 158.161 112.781C158.076 112.696 158.134 112.599 158.214 112.679Z" fill="#263238"/>
<path d="M157.154 115.149C158.646 116.47 160.467 117.359 162.424 117.721C162.43 117.721 162.435 117.722 162.44 117.724C162.446 117.726 162.45 117.729 162.454 117.733C162.458 117.737 162.461 117.742 162.464 117.747C162.466 117.752 162.467 117.758 162.467 117.763C162.465 117.774 162.46 117.783 162.453 117.79C162.445 117.797 162.435 117.801 162.424 117.801C160.389 117.669 158.486 116.74 157.127 115.214C157.01 115.107 157.037 115.059 157.154 115.149Z" fill="#222222"/>
<path d="M172.628 112.862C171.744 111.771 170.784 110.744 169.756 109.788C168.728 108.96 163.793 107.399 163.41 108.447C162.877 109.804 165.541 111.285 166.953 111.846C166.953 111.846 165.744 114.974 167.433 116.454C169.122 117.935 172.628 112.862 172.628 112.862Z" fill="#EB9481"/>
<path d="M163.373 108.863C163.778 110.466 165.669 111.06 166.985 111.701C167.002 111.708 167.017 111.717 167.03 111.73C167.042 111.743 167.052 111.758 167.059 111.774C167.065 111.791 167.068 111.809 167.068 111.826C167.067 111.844 167.062 111.862 167.055 111.878C167.057 111.89 167.057 111.903 167.055 111.915C166.634 113.268 166.431 115.288 167.342 116.464C167.348 116.471 167.351 116.48 167.351 116.488C167.351 116.497 167.348 116.506 167.342 116.512C167.337 116.518 167.329 116.521 167.321 116.521C167.313 116.521 167.306 116.518 167.3 116.512C166.154 115.358 166.191 113.374 166.767 111.931C165.403 111.295 163.538 110.6 163.41 108.857L163.373 108.863Z" fill="#222222"/>
<path d="M165.882 121.847C165.882 121.847 175.783 127.321 179.316 126.947C182.849 126.573 184.479 125.386 185.481 124.638C185.852 124.324 186.149 123.931 186.35 123.488C188.204 119.816 189.605 109.547 189.547 104.207C189.509 100.192 187.842 97.4176 185.875 99.6253C185.234 100.411 184.726 101.298 184.373 102.25C181.842 108.397 178.511 114.721 178.175 114.721C177.84 114.721 173.135 111.968 173.135 111.968L165.882 121.847Z" fill="#D9772E"/>
<path d="M189.024 111.905C188.838 113.417 188.609 114.957 188.342 116.416L187.959 116.951L187.682 114.567L185.966 114.032L187.538 113.262L187.362 112.108L188.46 112.728L189.024 111.905ZM184.005 123.708L184.404 123.034L183.642 123.104L183.381 122.478L182.976 123.157L182.31 122.997L182.694 123.569L182.193 124.061L182.987 123.991L183.435 124.814L183.616 124.05L184.218 124.269L184.005 123.708ZM175.767 121.292L176.108 120.987L175.671 120.891L175.634 120.506L175.287 120.816L174.941 120.607L175.063 120.992L174.68 121.179L175.143 121.281L175.25 121.815L175.484 121.415L175.783 121.644L175.767 121.292ZM187.09 106.089V105.629L186.744 105.869L186.429 105.618V106.089L186.046 106.19L186.429 106.377L186.307 106.762L186.69 106.5L187.149 106.8L187.026 106.351L187.41 106.292L187.09 106.089ZM170.998 119.923L169.612 120.132L169.079 119.004L168.387 120.303L167.188 120.078V120.11L167.955 121.104L167.081 122.061L168.546 121.842L169.463 123.323L169.692 121.906L170.843 122.243L170.342 121.249L170.998 119.923ZM183.898 106.719L183.014 106.612L182.971 105.725L182.763 106.008C182.47 106.655 182.177 107.291 181.884 107.906L182.124 108.676L182.689 107.906L183.499 108.179L183.195 107.227L183.898 106.719ZM177.429 117.63L178.404 117.828L178.021 116.956L178.655 116.384L177.68 116.181L177.578 115.326L177.046 116.037L176.257 115.652L176.673 116.577L175.873 117.448L176.864 117.347V118.164L177.429 117.63Z" fill="#F2F2F2"/>
<path opacity="0.1" d="M189.563 104.207C189.605 109.553 188.204 119.811 186.365 123.478C186.161 123.919 185.867 124.313 185.502 124.633C184.008 125.774 182.247 126.511 180.387 126.771L185.849 99.658L185.907 99.5885C187.857 97.4129 189.525 100.187 189.563 104.207Z" fill="black"/>
<path d="M169.026 122.281C169.229 121.896 171.461 118.774 171.968 118.106C172.474 117.437 174.483 114.684 175.058 114.043H175.101C175.101 114.043 175.101 114.043 175.101 114.075C174.659 114.818 172.628 117.598 172.133 118.303C171.637 119.009 169.362 122.045 169.069 122.334C169.042 122.345 169.01 122.307 169.026 122.281Z" fill="#222222"/>
<path d="M178.218 114.717C179.258 114.937 180.203 115.474 180.925 116.256C179.988 115.807 179.084 115.293 178.218 114.717V114.717Z" fill="#222222"/>
<path d="M187.501 116.764L188.487 121.837L211.085 118.041C211.085 118.041 201.254 102.218 193.767 97.9045C189.883 95.6646 186.973 97.1721 185.668 100.011C185.337 100.732 183.984 109.344 184.458 112.728C184.594 113.6 184.942 114.426 185.473 115.13C186.004 115.834 186.701 116.396 187.501 116.764V116.764Z" fill="#D9772E"/>
<path d="M189.36 115L187.948 116.956L187.676 114.567L185.96 114.032L187.527 113.262L187.357 112.108L188.449 112.728L189.403 111.408L189.872 113.145L191.326 113.027L190.426 114.096L191.326 115.657L189.36 115ZM201.936 105.837L202.362 105.96L202.16 105.725L201.936 105.837ZM204.323 108.409V108.58L204.392 108.499L204.323 108.409ZM193.804 119.923L193.037 119.987L192.77 119.367L192.371 120.046L191.705 119.88L192.088 120.463L191.582 120.95L192.381 120.88L192.531 121.158L192.968 121.083L193.005 120.933L193.277 121.035L193.532 120.987L193.367 120.602L193.804 119.923ZM207.126 113.952L207.525 113.278L206.758 113.343L206.497 112.717L206.103 113.391L205.442 113.225L205.826 113.808L205.325 114.294L206.119 114.225L206.566 115.048L206.742 114.278L207.344 114.497L207.126 113.952ZM198.898 106.089L199.25 105.779L198.813 105.682L198.771 105.297L198.424 105.613L198.078 105.399L198.2 105.784L197.817 105.971L198.28 106.073L198.387 106.607L198.621 106.222L198.92 106.452L198.898 106.089ZM187.085 106.089V105.629L186.744 105.869L186.429 105.618V106.089L186.046 106.19L186.429 106.377L186.307 106.762L186.69 106.5L187.149 106.8L187.026 106.351L187.41 106.292L187.085 106.089ZM193.058 103.95L193.73 102.651L192.339 102.86L191.806 101.727L191.135 103.036L189.882 102.806L190.687 103.833L189.808 104.795L191.278 104.57L192.184 106.057L192.44 104.608L193.591 104.95L193.058 103.95ZM209.183 117.486L210.595 117.32L210.062 116.497L209.183 117.486ZM210.632 117.373V118.143L211.074 118.068L210.632 117.373ZM198.152 113.829L199.128 114.027L198.744 113.156L199.378 112.584L198.403 112.386L198.323 111.52L197.79 112.236L197.001 111.851L197.417 112.781L196.618 113.653L197.609 113.546V114.358L198.152 113.829Z" fill="#F2F2F2"/>
<path d="M190.533 114.844C191.411 114.653 192.301 114.524 193.197 114.46C193.65 114.46 194.092 114.46 194.545 114.46H195.217C195.45 114.458 195.682 114.429 195.909 114.374C195.909 114.374 195.941 114.374 195.909 114.406C195.702 114.481 195.49 114.544 195.275 114.593C195.064 114.634 194.85 114.659 194.636 114.668C194.177 114.7 193.719 114.711 193.266 114.738C192.35 114.786 191.433 114.839 190.522 114.957C190.501 114.957 190.474 114.85 190.533 114.844Z" fill="#263238"/>
<path d="M188.651 116.283C189.333 115.984 190.033 115.727 190.746 115.513C191.103 115.407 191.46 115.316 191.811 115.241C191.987 115.203 192.163 115.166 192.344 115.139C192.525 115.113 192.728 115.091 192.925 115.054C192.925 115.054 192.957 115.054 192.925 115.086C192.744 115.123 192.573 115.198 192.392 115.246L191.859 115.401L190.794 115.717C190.08 115.92 189.366 116.123 188.662 116.353C188.63 116.353 188.614 116.299 188.651 116.283Z" fill="#263238"/>
<path d="M192.456 97.4128C201.978 101.689 212.508 110.547 214.08 116.588C215.652 122.628 213.408 122.468 212.812 122.607C209.151 123.275 196.506 108.772 192.227 102.625C187.948 96.4773 190.106 96.3597 192.456 97.4128Z" fill="#D9772E"/>
<path d="M206.79 107.693L205.496 107.196L204.329 108.58L204.238 106.517L201.941 105.838L204.073 104.769V104.533C204.824 105.116 205.544 105.715 206.236 106.319L206.188 106.351L206.79 107.693ZM207.132 113.947L207.531 113.268L206.764 113.332L206.503 112.712L206.108 113.391L205.448 113.225L205.831 113.808L205.33 114.295L206.124 114.225L206.572 115.048L206.748 114.278L207.35 114.498L207.132 113.947ZM198.904 106.089L199.256 105.779L198.819 105.683L198.776 105.298L198.43 105.613L198.083 105.399L198.206 105.784L197.822 105.971L198.286 106.073L198.393 106.607L198.627 106.223L198.925 106.452L198.904 106.089ZM191.705 101.866L192.238 102.636L192.302 102.716L191.801 101.7L191.705 101.866ZM192.366 102.828C192.59 103.144 192.835 103.486 193.101 103.844L193.73 102.62L192.366 102.828ZM211.448 117.716L212.876 117.988L212.284 116.711L213.206 115.861L211.762 115.583L211.624 114.316L210.862 115.385L209.689 114.813L210.323 116.166L209.172 117.459L210.632 117.288V118.486L211.448 117.716Z" fill="#F2F2F2"/>
<path d="M206.854 119.153C206.252 118.506 205.634 117.87 205.042 117.213L203.263 115.245C202.064 113.936 200.854 112.642 199.682 111.316C198.51 109.991 197.311 108.686 196.138 107.36C195.557 106.692 194.977 106.019 194.407 105.34C193.836 104.661 193.277 103.977 192.723 103.287C193.697 104.771 194.754 106.198 195.888 107.564C197.007 108.943 198.185 110.274 199.367 111.605C200.55 112.936 201.776 114.208 203.023 115.47C204.27 116.731 205.517 117.977 206.854 119.153Z" fill="#222222"/>
<path d="M194.05 105.078C193.834 104.847 193.606 104.627 193.368 104.421L193.005 104.121C192.883 104.02 192.755 103.925 192.622 103.838C192.77 104.131 192.977 104.391 193.229 104.602C193.471 104.81 193.749 104.972 194.05 105.078V105.078Z" fill="#222222"/>
<path d="M213.989 122.04C211.57 123.392 207.595 122.644 196.975 119.827C195.504 119.442 195.44 108.275 197.05 108.601C199.053 109.023 206.748 111.103 207.291 111.322C211.869 113.225 215.636 121.12 213.989 122.04Z" fill="#EB9481"/>
<path d="M201.131 110.392C201.131 110.392 197.481 108.013 195.184 107.334C192.774 106.704 190.247 106.671 187.82 107.238C185.193 107.847 179.294 111.124 179.918 113.006C180.499 114.701 186.382 111.044 186.382 111.044C186.382 111.044 179.763 113.776 180.84 115.7C181.916 117.625 188.502 112.979 188.502 112.979C188.502 112.979 181.778 115.935 183.174 117.737C184.239 119.095 190.453 115.235 190.453 115.235C190.453 115.235 184.682 117.822 185.731 119.266C186.877 120.869 192.835 117.662 192.835 117.662C196.106 120.869 199.048 121.008 201.11 120.902C201.664 120.88 201.131 110.392 201.131 110.392Z" fill="#EB9481"/>
<path d="M188.619 109.933C187.831 110.232 187.021 110.521 186.27 110.884C185.518 111.248 184.762 111.654 184.037 112.066C183.077 112.611 182.183 113.266 181.373 114.017C182.936 112.886 184.602 111.907 186.349 111.093C187.117 110.729 187.852 110.323 188.609 109.965C188.657 109.97 188.641 109.933 188.619 109.933Z" fill="#222222"/>
<path d="M189.978 112.68C188.982 113.097 187.985 113.471 187.01 113.936C186.035 114.401 185.167 114.92 184.229 115.438C184.16 115.481 184.229 115.508 184.282 115.47C185.236 114.984 186.152 114.604 187.112 114.128C188.071 113.653 189.025 113.139 189.989 112.701L189.978 112.68Z" fill="#222222"/>
<path d="M191.54 114.807C190.006 115.413 188.539 116.174 187.16 117.079C187.085 117.122 187.16 117.148 187.224 117.111C188.668 116.341 189.797 115.7 191.561 114.866C191.604 114.85 191.588 114.796 191.54 114.807Z" fill="#222222"/>
<path d="M200.63 109.077L202.005 122.276C202.005 122.276 212.758 124.018 214.16 121.891C215.561 119.763 211.623 113.38 208.416 111.611C207.073 110.873 200.63 109.077 200.63 109.077Z" fill="#D9772E"/>
<path d="M207.366 114.497L206.764 114.278L206.582 115.048L206.14 114.225L205.346 114.294L205.847 113.808L205.463 113.225L206.124 113.391L206.529 112.712L206.79 113.332L207.558 113.268L207.158 113.947L207.366 114.497ZM212.284 116.71L212.785 116.24C212.684 116.064 212.566 115.882 212.449 115.705L211.762 115.572L211.661 114.61C211.619 114.554 211.575 114.5 211.527 114.449L210.877 115.374L209.705 114.807L210.334 116.155L209.188 117.448L210.638 117.277V118.469L211.447 117.699L212.876 117.977L212.284 116.71Z" fill="#F2F2F2"/>
<path d="M200.679 109.515V109.072H200.647C201.739 109.424 202.826 109.767 203.908 110.141C204.989 110.515 206.076 110.862 207.137 111.29C207.66 111.488 208.171 111.718 208.666 111.98C209.157 112.258 209.623 112.58 210.057 112.942C210.927 113.678 211.675 114.547 212.274 115.518C211.772 114.473 211.073 113.535 210.217 112.755C209.786 112.363 209.315 112.019 208.81 111.728C208.303 111.448 207.778 111.202 207.238 110.991C206.172 110.579 205.069 110.226 203.972 109.895C202.874 109.563 201.76 109.291 200.641 109.045H200.599V109.077L200.679 109.515Z" fill="#222222"/>
<path d="M203.694 111.284C203.726 111.942 203.812 112.61 203.876 113.267C203.939 113.925 204.019 114.593 204.099 115.251C204.265 116.571 204.43 117.886 204.632 119.201C204.685 119.565 204.733 119.923 204.797 120.27C204.861 120.618 204.963 121.04 205.027 121.425C205.027 121.457 205.074 121.425 205.069 121.425C205.037 121.099 205.069 120.773 205.016 120.441C204.963 120.11 204.957 119.773 204.915 119.431C204.84 118.773 204.765 118.116 204.68 117.453C204.52 116.138 204.35 114.812 204.147 113.503C204.03 112.765 203.939 112.011 203.764 111.274C203.761 111.27 203.757 111.267 203.753 111.266C203.749 111.264 203.744 111.263 203.74 111.263C203.735 111.263 203.731 111.264 203.726 111.266C203.722 111.267 203.719 111.27 203.716 111.274L203.694 111.284Z" fill="#222222"/>
<path d="M201.883 121.078C201.968 121.463 202.037 121.848 202.101 122.233L202.021 122.147C204.318 122.409 206.615 122.612 208.911 122.682C210.062 122.716 211.214 122.674 212.359 122.553C212.93 122.551 213.487 122.375 213.958 122.051C214.346 121.63 214.581 121.089 214.624 120.517C214.623 121.104 214.415 121.672 214.037 122.12C212.21 123.628 204.483 122.703 202.011 122.323H201.936C201.909 121.906 201.899 121.49 201.899 121.067L201.883 121.078Z" fill="#222222"/>
<path d="M190.575 98.3851C190.703 98.8021 190.309 102.229 188.577 103.095C188.018 103.378 186.318 100.368 186.318 100.368L186.142 100.171L183.675 97.455L185.971 93.0235L186.323 92.4141C186.323 92.4141 186.952 93.1999 187.714 94.1888L187.826 94.3278C187.872 94.3786 187.914 94.4322 187.954 94.4882C188.071 94.6325 188.194 94.7822 188.305 94.9319C188.417 95.0815 188.481 95.1617 188.567 95.2847L188.833 95.6535C189.478 96.5214 190.06 97.4342 190.575 98.3851V98.3851Z" fill="#EB9481"/>
<path d="M187.73 94.2162C187.913 95.2707 187.864 96.3525 187.588 97.3865C187.312 98.4204 186.815 99.3816 186.131 100.203L183.664 97.4823L185.961 93.0508L186.312 92.4414C186.312 92.4414 186.968 93.2326 187.73 94.2162Z" fill="#222222"/>
<path d="M176.817 94.9853C179.113 101.005 182.961 100.331 184.277 99.7964C185.449 99.3474 189.392 97.6581 187.724 91.4358C186.057 85.2135 182.545 84.3742 179.806 85.2616C177.067 86.149 174.515 88.9661 176.817 94.9853Z" fill="#EB9481"/>
<path d="M177.685 94.7127C177.84 94.7127 177.978 94.7127 178.133 94.6806C178.289 94.6855 178.443 94.6426 178.575 94.5576C178.611 94.5218 178.634 94.4748 178.639 94.4243C178.645 94.3738 178.634 94.3228 178.607 94.2797C178.544 94.2009 178.462 94.1402 178.368 94.1035C178.275 94.0669 178.173 94.0558 178.074 94.0712C177.876 94.0819 177.688 94.1613 177.541 94.2957C177.518 94.3182 177.499 94.3451 177.487 94.375C177.474 94.4048 177.467 94.437 177.467 94.4694C177.467 94.5019 177.474 94.534 177.487 94.5639C177.499 94.5937 177.518 94.6207 177.541 94.6432C177.579 94.6829 177.63 94.7076 177.685 94.7127V94.7127Z" fill="#222222"/>
<path d="M181.325 92.2967C181.202 92.3715 181.074 92.441 180.946 92.5052C180.817 92.5955 180.662 92.6423 180.504 92.6388C180.455 92.628 180.411 92.6011 180.379 92.5624C180.347 92.5236 180.329 92.4752 180.328 92.425C180.339 92.3233 180.376 92.2264 180.437 92.1446C180.498 92.0627 180.58 91.9989 180.674 91.9599C180.852 91.8534 181.062 91.8154 181.266 91.853C181.328 91.8727 181.381 91.9162 181.412 91.9742C181.443 92.0322 181.45 92.0999 181.431 92.163C181.412 92.2183 181.374 92.2654 181.325 92.2967Z" fill="#222222"/>
<path d="M181.224 93.9863C181.224 93.9863 181.261 93.9863 181.266 93.9863C181.41 94.4033 181.65 94.8577 182.066 94.847C182.066 94.847 182.066 94.847 182.066 94.8737C181.597 95.0073 181.293 94.4033 181.224 93.9863Z" fill="#222222"/>
<path d="M181.415 93.4086C182.055 93.1092 182.614 94.4136 182.023 94.6915C181.431 94.9695 180.882 93.6652 181.415 93.4086Z" fill="#222222"/>
<path d="M181.735 93.3816C181.863 93.4084 182.023 93.4886 182.145 93.4511C182.268 93.4137 182.337 93.2106 182.369 93.0342C182.486 93.2801 182.513 93.5687 182.295 93.7238C182.076 93.8788 181.847 93.7238 181.677 93.4939C181.671 93.4618 181.682 93.3763 181.735 93.3816Z" fill="#222222"/>
<path d="M182.945 97.1773C182.907 97.3216 182.886 97.498 182.753 97.5889C182.61 97.6687 182.452 97.7162 182.289 97.7279L182.945 97.1773ZM182.289 97.7279C182.386 97.7724 182.494 97.7895 182.6 97.7773C182.706 97.765 182.807 97.7239 182.891 97.6584C182.957 97.5936 183.002 97.5108 183.021 97.4205C183.04 97.3302 183.032 97.2364 182.998 97.1506C182.998 97.1238 182.96 97.1506 182.945 97.1506L182.289 97.7279Z" fill="#222222"/>
<path d="M180.68 96.6059C180.68 96.6059 180.947 97.2153 181.106 97.4772C181.106 97.4772 181.197 97.4772 181.288 97.4238C181.539 97.3247 181.758 97.1579 181.92 96.9419C182.083 96.7259 182.183 96.469 182.209 96.1996C182.209 96.1675 182.162 96.1569 182.146 96.1996C181.957 96.6387 181.629 97.0032 181.213 97.2367C181.149 97.1779 180.787 96.1675 180.739 96.2103C180.537 96.3527 180.358 96.5238 180.206 96.7181C179.609 95.4726 179.215 94.1362 178.607 92.9067C178.604 92.8961 178.596 92.8874 178.586 92.8824C178.576 92.8775 178.565 92.8766 178.554 92.88C178.544 92.8846 178.536 92.8923 178.531 92.902C178.527 92.9117 178.525 92.9228 178.527 92.9334C178.907 94.3725 179.427 95.7708 180.078 97.1084C180.185 97.2527 180.606 96.7181 180.68 96.6059Z" fill="#222222"/>
<path d="M177.744 95.6004C177.834 95.5201 177.934 95.4518 178.042 95.3973C178.158 95.3446 178.279 95.3069 178.404 95.285C178.531 95.2618 178.661 95.2618 178.788 95.285C178.921 95.3167 179.043 95.381 179.145 95.4721L179.337 95.6325L179.113 95.6967C178.941 95.7398 178.775 95.8026 178.618 95.8838C178.45 95.961 178.305 96.0807 178.197 96.2312C178.234 96.0296 178.344 95.8488 178.506 95.7234C178.661 95.5921 178.843 95.4955 179.039 95.4401L178.985 95.6699C178.823 95.5428 178.621 95.4767 178.415 95.4828C178.187 95.496 177.962 95.5354 177.744 95.6004V95.6004Z" fill="#222222"/>
<path d="M178.751 96.2793C178.909 96.1684 179.054 96.0392 179.183 95.8944C179.209 95.8516 179.31 95.6966 179.289 95.6699C179.239 95.5903 179.178 95.5183 179.108 95.4561C179.199 95.4996 179.28 95.5636 179.342 95.6432C179.349 95.6975 179.344 95.7525 179.329 95.8049C179.313 95.8573 179.287 95.906 179.252 95.9479C179.114 96.097 178.942 96.2106 178.751 96.2793V96.2793Z" fill="#222222"/>
<path d="M187.773 92.1097C187.322 92.131 186.874 92.0361 186.471 91.8339C186.068 91.6317 185.724 91.3291 185.471 90.9551C184.264 91.0672 183.05 90.8531 181.954 90.335C182.05 90.4312 182.774 91.1048 183.158 91.4469C182.093 91.8443 180.949 91.978 179.822 91.8366C178.694 91.6951 177.618 91.2827 176.684 90.6344C176.352 91.6227 176.246 92.6732 176.375 93.7081C176.375 93.7081 175.154 91.5698 175.469 89.4797C175.556 88.7775 175.826 88.1109 176.253 87.5476C176.68 86.9843 177.247 86.5443 177.899 86.2723C178.655 85.5788 179.584 85.1025 180.587 84.8937C181.59 84.6849 182.631 84.7511 183.6 85.0856C187.277 86.3097 187.773 92.1097 187.773 92.1097Z" fill="#222222"/>
<path d="M180.137 92.334C180.875 92.3284 181.609 92.2168 182.316 92.0026V92.0026C181.176 92.274 179.983 92.226 178.868 91.8636C178.394 91.7049 177.941 91.4876 177.52 91.2168C177.049 90.9435 176.637 90.5802 176.305 90.1476C176.301 90.1413 176.294 90.1368 176.287 90.1353C176.279 90.1338 176.272 90.1354 176.265 90.1396C176.259 90.1439 176.255 90.1505 176.253 90.158C176.252 90.1655 176.253 90.1733 176.257 90.1797C176.54 90.6506 176.9 91.07 177.323 91.4199C177.75 91.7519 178.234 92.002 178.751 92.1576C179.211 92.2933 179.689 92.3635 180.168 92.3661" fill="#222222"/>
<path d="M186.696 91.9329C186.696 91.9329 187.074 89.506 188.113 89.5595C189.152 89.6129 189.456 92.6973 188.689 93.5259C188.503 93.7479 188.238 93.8871 187.95 93.9131C187.662 93.9392 187.376 93.8499 187.154 93.6649L187.122 93.6328L186.696 91.9329Z" fill="#EB9481"/>
<path d="M188.183 90.4473C188.183 90.4473 188.215 90.4473 188.183 90.4473C187.946 90.7519 187.776 91.1031 187.685 91.478C187.593 91.8529 187.581 92.2431 187.65 92.6229C187.666 92.4668 187.743 92.3234 187.863 92.2234C187.984 92.1234 188.139 92.0749 188.295 92.0884H188.385C188.385 92.0884 188.385 92.1311 188.385 92.1365C188.248 92.1562 188.121 92.2183 188.02 92.3141C187.92 92.4099 187.852 92.5347 187.826 92.6711C187.779 92.8979 187.76 93.1293 187.767 93.3606C187.767 93.3791 187.76 93.3968 187.747 93.4098C187.734 93.4228 187.716 93.4301 187.698 93.4301C187.679 93.4301 187.662 93.4228 187.649 93.4098C187.636 93.3968 187.628 93.3791 187.628 93.3606V93.3606C187.218 92.5053 187.309 90.9818 188.183 90.4473Z" fill="#222222"/>
<path d="M137.505 85.0054L132.854 95.5146L134.412 96.2088L139.063 85.6995L137.505 85.0054Z" fill="#37474F"/>
<path d="M115.056 72.8567L108.822 86.9424L112.007 88.361L118.241 74.2754L115.056 72.8567Z" fill="#222222"/>
<path d="M160.892 96.8232L157.279 104.987L158.837 105.681L162.45 97.5173L160.892 96.8232Z" fill="#ADB4BD"/>
<path d="M177.27 107.292L169.581 108.757L171.835 103.662L173.215 104.277L177.27 107.292Z" fill="#ADB4BD"/>
<path d="M117.832 75.2075L112.411 87.4561L132.472 96.3908L137.892 84.1422L117.832 75.2075Z" fill="#ADB4BD"/>
<path d="M138.83 86.2277L134.648 95.6768L156.998 105.631L161.18 96.1819L138.83 86.2277Z" fill="#E2C5AF"/>
<path d="M162.211 98.0709L159.087 105.131L169.202 109.636L172.327 102.576L162.211 98.0709Z" fill="#E2C5AF"/>
<path d="M177.69 98.4386L173.329 104.425L176.637 106.85L180.998 100.864L177.69 98.4386Z" fill="#E2C5AF"/>
<path d="M179.781 96.492L178.13 98.7578L180.574 100.549L182.224 98.2835L179.781 96.492Z" fill="#ADB4BD"/>
<path d="M150.931 85.7914L149.811 88.3223L162.868 94.1378L163.988 91.607L150.931 85.7914Z" fill="#E2C5AF"/>
<path d="M160.085 94.4837L151.26 90.5547L150.466 91.4153L159.637 95.4994L160.085 94.4837Z" fill="#ADB4BD"/>
<path d="M155.085 91.0912L154.659 92.0537L156.184 92.7327L156.61 91.7702L155.085 91.0912Z" fill="#E2C5AF"/>
<path d="M156.118 87.6894L154.682 90.9336L156.981 91.9574L158.417 88.7133L156.118 87.6894Z" fill="#ADB4BD"/>
<path d="M147.922 84.7807L146.472 88.0107L149.953 89.5844L151.404 86.3544L147.922 84.7807Z" fill="#ADB4BD"/>
<path d="M163.72 92.1847L163.104 93.5771L164.161 94.0479L164.777 92.6554L163.72 92.1847Z" fill="#ADB4BD"/>
<path d="M143.017 105.838L150.227 109.045L153.781 104.186L144.232 99.9307L143.017 105.838Z" fill="#ADB4BD"/>
<path d="M149.529 107.991H143.555L141.68 117.004H151.394L149.529 107.991Z" fill="#ADB4BD"/>
<path d="M147 107.019L146.157 108.543L157.63 114.926L158.473 113.402L147 107.019Z" fill="#ADB4BD"/>
<path d="M164.071 119.255L155.849 114.257L156.968 112.247L165.547 116.593L164.071 119.255Z" fill="#222222"/>
<path d="M150.264 109.275C149.94 110.014 149.404 110.64 148.725 111.074C148.045 111.508 147.253 111.73 146.448 111.712C145.643 111.694 144.861 111.437 144.202 110.973C143.542 110.51 143.035 109.86 142.743 109.107C142.452 108.354 142.39 107.531 142.564 106.743C142.739 105.954 143.143 105.235 143.725 104.677C144.307 104.119 145.041 103.746 145.834 103.606C146.627 103.467 147.444 103.566 148.181 103.892V103.892C149.168 104.329 149.943 105.141 150.333 106.151C150.724 107.16 150.699 108.284 150.264 109.275V109.275Z" fill="#222222"/>
<path d="M148.181 108.35C148.037 108.675 147.8 108.949 147.501 109.138C147.202 109.328 146.853 109.424 146.499 109.415C146.145 109.406 145.802 109.292 145.513 109.087C145.224 108.882 145.002 108.596 144.875 108.265C144.747 107.934 144.721 107.572 144.798 107.225C144.876 106.879 145.054 106.564 145.311 106.319C145.567 106.074 145.89 105.911 146.238 105.85C146.587 105.789 146.946 105.833 147.27 105.977C147.704 106.171 148.043 106.53 148.214 106.975C148.385 107.42 148.373 107.914 148.181 108.35Z" fill="#C4C4C4"/>
<path d="M146.891 107.778C146.857 107.844 146.804 107.899 146.739 107.936C146.675 107.972 146.601 107.989 146.527 107.985C146.453 107.98 146.381 107.954 146.322 107.91C146.262 107.865 146.217 107.804 146.191 107.734C146.165 107.664 146.16 107.588 146.176 107.516C146.193 107.443 146.23 107.377 146.283 107.325C146.336 107.273 146.404 107.237 146.477 107.223C146.549 107.209 146.625 107.216 146.694 107.244C146.787 107.285 146.861 107.361 146.899 107.456C146.937 107.551 146.936 107.657 146.896 107.751L146.891 107.778Z" fill="#ADB4BD"/>
<path d="M152.896 119.378H140.171V122.473H152.896V119.378Z" fill="#222222"/>
<path d="M152.049 117.015H141.019V119.383H152.049V117.015Z" fill="#222222"/>
<path d="M147.206 216.545H145.863L145.122 122.473H147.946L147.206 216.545Z" fill="#ADB4BD"/>
<path d="M117.237 216.545H115.895L140.566 122.473H143.385L117.237 216.545Z" fill="#ADB4BD"/>
<path d="M175.836 216.545H177.174L152.507 122.473H149.683L175.836 216.545Z" fill="#ADB4BD"/>
<path d="M167.428 171.492H125.641V173.62H167.428V171.492Z" fill="#222222"/>
<path d="M40.9418 15.8005C-15.7443 21.9426 -7.31435 102.993 49.6594 96.8725C106.633 90.4577 97.9156 9.67972 40.9418 15.8005Z" fill="#DEA278"/>
<path opacity="0.6" d="M40.9418 15.8005C-15.7443 21.9426 -7.31435 102.993 49.6594 96.8725C106.633 90.4577 97.9156 9.67972 40.9418 15.8005Z" fill="#222222"/>
<path d="M40.6486 12.3212C-16.3252 18.4259 -7.60756 99.4979 49.0785 93.3718C106.052 87.251 97.6224 6.47304 40.6486 12.3212Z" fill="#DEA278"/>
<path d="M80.1713 56.6304C78.7166 70.9193 68.2565 84.3315 48.1995 86.3736C1.11562 91.329 -6.15264 23.9686 41.2296 19.3018C41.3879 19.3216 41.5486 19.3054 41.6999 19.2545C41.8511 19.2036 41.9891 19.1193 42.1035 19.0078C-1.78849 24.5512 4.89363 88.4156 49.9526 83.1555C68.2671 81.4182 78.1464 69.46 80.1713 56.6304Z" fill="#F2F2F2"/>
<path d="M42.3911 27.7593C42.5852 27.7476 42.7795 27.7774 42.9613 27.8466C43.1431 27.9158 43.3081 28.0229 43.4456 28.1608C43.5831 28.2987 43.6898 28.4643 43.7588 28.6467C43.8278 28.829 43.8575 29.024 43.8458 29.2187L44.1389 31.5654C48.2046 31.2767 51.988 32.4421 55.4729 34.4841C56.0537 34.7728 56.6345 35.0668 56.3468 35.6495C56.3584 35.8442 56.3288 36.0391 56.2598 36.2215C56.1908 36.4039 56.0841 36.5695 55.9466 36.7074C55.8091 36.8453 55.644 36.9524 55.4623 37.0216C55.2805 37.0908 55.0861 37.1205 54.8921 37.1088C54.4823 37.1526 54.0704 37.0484 53.7304 36.8148C50.7861 35.1471 47.5109 34.1523 44.1389 33.9015L45.8813 49.6444C55.4729 50.5211 59.544 53.1458 60.4179 58.6892C60.988 64.7939 56.0537 69.4607 48.1993 70.626L48.7855 74.9988C48.7986 75.1938 48.7703 75.3895 48.7023 75.5728C48.6343 75.756 48.5283 75.9227 48.3912 76.0617C48.2542 76.2007 48.0892 76.3089 47.9073 76.3791C47.7254 76.4493 47.5307 76.4799 47.3361 76.4688C46.9581 76.4448 46.6018 76.2834 46.334 76.0147C46.0662 75.7461 45.9052 75.3886 45.8813 75.0094L45.3005 70.6367C40.0678 70.9307 35.4159 69.1774 30.764 66.264C30.1832 65.97 30.1832 65.6813 29.8954 65.0986C29.883 64.9042 29.9119 64.7093 29.9803 64.527C30.0486 64.3446 30.1549 64.1789 30.2919 64.0409C30.429 63.9029 30.5938 63.7957 30.7753 63.7265C30.9568 63.6572 31.151 63.6275 31.3448 63.6393C31.7555 63.5955 32.1685 63.6976 32.5118 63.9279C36.2898 66.5526 40.3609 68.306 45.0074 68.012L43.265 51.9751C33.9612 51.0877 29.8954 48.463 29.3146 42.6309C28.7285 37.0928 33.6734 32.1321 41.2294 31.2607L40.9417 29.2187C41.2294 28.9247 41.8103 27.7593 42.3911 27.7593V27.7593ZM43.5581 49.3397L41.8049 33.8854C35.9967 34.7728 32.2134 38.2582 32.7995 42.6309C33.3804 46.421 35.709 48.757 43.5581 49.3397V49.3397ZM46.7552 52.5471L48.4977 68.2953C54.8921 67.7126 58.3823 63.9172 57.8015 59.5445C57.2207 55.7544 54.8921 53.4237 46.7552 52.5471V52.5471Z" fill="#F2F2F2"/>
</g>
<defs>
<clipPath id="clip0_806_1529">
<rect width="224" height="205" fill="white" transform="translate(2 12)"/>
</clipPath>
</defs>
</svg>
